<svg xmlns="http://www.w3.org/2000/svg" id="Isolation_Mode" x="0" y="0" viewBox="0 0 82 82" xml:space="preserve" width="82" height="82"><title>brand 04</title><g class="nc-icon-wrapper"><path class="st0" d="M37.3 55.6c1.1-1.9 1.6-3.3 1.2-5.4-.7-4.1-8.5-8.1-13.4-2.5 1-2.7 3.4-3.7 6-4-.5-.3-.9-.7-1.4-1-1.3-1.1-2.6-2.2-5.1-2.1 3.7-1.2 5.8 2.2 8.8 3.1 2.6.8 3.4 1.1 5.5 2.2 0-.9-.8-2.9-1.4-3.8-1.3-2.3-3-3.4-4.7-4.1-2.6-1-5.3-.9-6.9-2.3 2.8 1.1 5.3.8 7.1 1.3-1.1-2.3-1.4-5.1-2.9-6.5 1.8.8 2.5 4.5 4.4 7.1.8.3 1.5.8 2.2 1.4-1.1-4.2.6-8.8-1.2-11.6 3.3 3.2-.2 9.6 4.5 14.6 2.4-5.7-1.5-11.5 1.1-15.5-1.1 3.7.6 7.1 1 10.1.2 1.6.3 3.5-.3 5.5 3.8-4.6.8-10.9 5-14.5-2.8 3.7-1 7.6-2.1 11.8.9-.8 1.7-1.4 2.6-1.8 1.9-2.6 1.9-6.4 4-7.4-1.5 1.4-1.5 4.5-2.6 6.9 1.8-.5 4.3-.1 7.1-1.3-1.4 1.2-4.1 1.2-6.7 2.2-2.2.8-4.3 2.3-5.6 6-.1.2-.6 1.6-.7 1.8 1.3-1 4.2-1.6 5.9-2.1 2.9-.9 5.1-3.8 8.7-2.6-3.7-.1-4.5 1.3-6.5 2.7 2.6.2 4.9 1.3 6 4-4.9-5.7-12.6-1.6-13.4 2.5-.4 2.3.1 3.9 1.5 5.8 4 4.7 12.5 4 16-.8 2.9-4 4.6-8.9 4.6-14.2 0-13.5-11-24.5-24.5-24.5-1.8 0-3.5.2-5.2.6 2.4-.8 5-1.2 7.7-1.2 6.9 0 13.2 2.8 17.7 7.4 4.3 4.3 7 10 7.3 16.4v1.3c0 5.7-1.7 11-4.7 15.4-2.5 3.7-5.9 6.8-9.9 8.9-4 2.1-8.3 3.2-12.9 3.2-7.6 0-14.7-3.1-19.9-8.5-4.7-4.9-7.6-11.6-7.6-19 0-15.2 12.3-27.6 27.6-27.6 2.9 0 5.8.5 8.4 1.3-1.9-.4-3.9-.7-6-.7-7.4 0-14.2 3-19 7.9-4.3 4.3-7.1 9.9-7.7 16.2-.1.9-.2 1.9-.2 2.8 0 5.4 1.7 10.4 4.7 14.4 3.7 5.3 12.2 5.3 15.9.2z" style="" fill="#524840"></path><path class="st1" d="M33.9 26.6c.8.2 1.4.8 1.7 1.5.3.6.4 1.4.2 2.1 0-.1-.1-.1-.1-.2-.4-.7-.7-1.4-1.1-1.8.2.5.4 1.3.8 2 0 .1.1.1.1.2-.7-.3-1.2-.8-1.5-1.4-.4-.8-.4-1.6-.1-2.4z" style="" fill="#44A834"></path><path class="st2" d="M33.2 41.2c.9-.3 1.9-.1 2.7.4.7.4 1.3 1.1 1.6 2-.1 0-.1-.1-.2-.1-.8-.5-1.7-.9-2.3-1.1.5.5 1.3 1 2.1 1.5.1 0 .1.1.2.1-.8.2-1.7 0-2.5-.4-.7-.7-1.3-1.5-1.6-2.4z" style="" fill="#22732C"></path><path class="st2" d="M49.4 41.1c-1-.4-2.1-.3-3 .2-.9.4-1.5 1.1-1.9 2 .1 0 .2-.1.3-.1 1-.5 1.9-.8 2.6-1.1-.6.4-1.5 1-2.5 1.4-.1 0-.2.1-.2.1.9.3 1.9.2 2.7-.2.9-.4 1.6-1.3 2-2.3z" style="" fill="#22732C"></path><path class="st3" d="M61.6 36.7c-.8-.5-1.9-.6-2.8-.4-.9.2-1.6.8-2.1 1.5.1 0 .2 0 .3-.1 1-.3 1.9-.5 2.6-.5-.6.3-1.5.6-2.5.9-.1 0-.2 0-.2.1.8.4 1.7.5 2.6.2.8-.2 1.6-.8 2.1-1.7z" style="" fill="#99CC33"></path><path class="st3" d="M58.3 29.2c-1-.2-2.1.1-2.9.8-.7.6-1.3 1.4-1.4 2.3l.2-.2c.8-.6 1.7-1.2 2.4-1.5-.5.6-1.3 1.2-2.1 1.9l-.2.2c.9.1 1.9-.2 2.6-.8.8-.7 1.3-1.6 1.4-2.7z" style="" fill="#99CC33"></path><path class="st3" d="M52.3 23.4c-1 .2-1.8.9-2.3 1.8-.4.8-.6 1.7-.4 2.6 0-.1.1-.2.1-.2.5-.9 1-1.7 1.5-2.3-.2.7-.7 1.6-1.2 2.5 0 .1-.1.2-.1.2.9-.3 1.6-.9 2-1.7.6-.9.7-1.9.4-2.9z" style="" fill="#99CC33"></path><path class="st3" d="M44.7 20.5c-.9.6-1.4 1.6-1.6 2.6-.1 1 .1 1.9.6 2.7v-.3c.1-1.1.4-2.1.6-2.8 0 .8 0 1.8-.2 2.9v.3c.7-.6 1.2-1.5 1.3-2.4.2-1.1-.1-2.2-.7-3z" style="" fill="#99CC33"></path><path class="st3" d="M36.3 20.5c-.5.9-.6 2-.4 3 .3.9.8 1.7 1.6 2.2 0-.1-.1-.2-.1-.3-.3-1-.5-2-.6-2.7.3.7.7 1.6 1 2.6 0 .1 0 .2.1.3.4-.8.5-1.8.2-2.7-.2-1-.9-1.9-1.8-2.4z" style="" fill="#99CC33"></path><path class="st3" d="M29 23.9c-.1 1 .1 2 .7 2.7.5.7 1.3 1.2 2.2 1.3l-.2-.2c-.6-.8-1.1-1.6-1.5-2.2.5.5 1.2 1.2 1.8 2l.2.2c.1-.9-.2-1.7-.8-2.4-.6-.8-1.5-1.3-2.4-1.4z" style="" fill="#99CC33"></path><path class="st3" d="M23.2 29.9c.2 1 .9 1.8 1.7 2.3.8.4 1.7.6 2.6.4-.1 0-.2-.1-.2-.1-.9-.5-1.7-1-2.2-1.5.7.2 1.6.6 2.4 1.1.1 0 .2.1.2.1-.3-.8-.9-1.5-1.7-2-.8-.5-1.9-.6-2.8-.3z" style="" fill="#99CC33"></path><path class="st3" d="M20.3 37.2c.6.8 1.5 1.3 2.5 1.4.9.1 1.8-.1 2.5-.6H25c-1-.1-2-.3-2.6-.5.7 0 1.7 0 2.7.1h.3c-.6-.7-1.4-1.1-2.3-1.2-1-.1-2 .1-2.8.8z" style="" fill="#99CC33"></path><path class="st3" d="M20.2 45.5c.9.6 2.1.7 3.1.4 1-.3 1.8-.9 2.3-1.7-.1 0-.2.1-.3.1-1.1.3-2.1.5-2.9.6.7-.3 1.7-.7 2.8-1 .1 0 .2 0 .3-.1-.9-.4-1.9-.5-2.8-.3-1.1.3-2 1-2.5 2z" style="" fill="#99CC33"></path><path class="st3" d="M61.7 44.7c-.7-.9-1.7-1.5-2.8-1.6-1-.1-2 .1-2.9.7h.3c1.1.1 2.2.4 3 .6-.8 0-1.9 0-3-.1H56c.7.8 1.6 1.2 2.6 1.4 1.1.1 2.2-.2 3.1-1z" style="" fill="#99CC33"></path><path class="st4" d="M60.7 32.6c-.8-.3-1.7-.2-2.4.1-.7.3-1.2.9-1.5 1.6.1 0 .1-.1.2-.1.8-.4 1.5-.7 2.1-.9-.5.4-1.2.8-1.9 1.2-.1 0-.1.1-.2.1.7.2 1.5.1 2.2-.2.7-.3 1.3-1 1.5-1.8z" style="" fill="#D4C213"></path><path class="st4" d="M55.9 25.7c-.8 0-1.6.4-2.1 1.1-.6.5-.8 1.2-.8 2 0-.1.1-.1.1-.2.5-.6 1.1-1.2 1.6-1.6-.3.5-.8 1.2-1.3 1.8 0 .1-.1.1-.1.2.7-.1 1.4-.5 1.9-1 .5-.7.7-1.5.7-2.3z" style="" fill="#D4C213"></path><path class="st4" d="M48.9 21.2c-.8.4-1.3 1-1.6 1.8-.2.7-.2 1.5.1 2.2 0-.1 0-.1.1-.2.3-.8.6-1.6.9-2.1-.1.6-.3 1.4-.5 2.2 0 .1 0 .1-.1.2.6-.4 1.1-1 1.4-1.7.1-.8.1-1.7-.3-2.4z" style="" fill="#D4C213"></path><path class="st4" d="M40.6 19.7c-.6.6-.8 1.4-.8 2.3.1.8.4 1.5.9 2v-.2c-.1-.8-.1-1.7 0-2.3.2.6.3 1.4.3 2.2v.2c.5-.6.7-1.3.6-2.1 0-.8-.4-1.6-1-2.1z" style="" fill="#D4C213"></path><path class="st4" d="M32.2 21.6c-.2.8-.2 1.6.2 2.4.3.7.9 1.2 1.6 1.5 0-.1-.1-.1-.1-.2-.4-.8-.7-1.5-.9-2.1.4.5.8 1.2 1.2 1.9 0 .1.1.1.1.2.2-.7.1-1.5-.2-2.2-.4-.7-1.1-1.3-1.9-1.5z" style="" fill="#D4C213"></path><path class="st4" d="M25.5 26.3c0 .8.4 1.6 1.1 2.2.6.5 1.3.7 2.1.7-.1 0-.1-.1-.2-.1-.6-.6-1.2-1.1-1.6-1.6.5.3 1.2.8 1.8 1.3.1 0 .1.1.2.1-.1-.7-.5-1.4-1-1.9-.8-.5-1.6-.8-2.4-.7z" style="" fill="#D4C213"></path><path class="st4" d="M20.9 33.5c.4.7 1 1.3 1.8 1.6.7.2 1.5.2 2.2-.1-.1 0-.1 0-.2-.1-.8-.3-1.6-.6-2.1-.8.6.1 1.4.3 2.2.5.1 0 .1 0 .2.1-.4-.6-1-1.1-1.7-1.4-.8-.3-1.6-.2-2.4.2z" style="" fill="#D4C213"></path><path class="st4" d="M19.5 41.6c.6.6 1.4.8 2.3.8.8-.1 1.5-.4 2-.9h-.2c-.8.1-1.7.1-2.3 0 .6-.2 1.4-.3 2.2-.3h.2c-.6-.5-1.3-.7-2.1-.6-.8 0-1.6.4-2.1 1z" style="" fill="#D4C213"></path><path class="st4" d="M21.3 49.7c.8.3 1.7.2 2.4-.1.7-.3 1.2-.9 1.5-1.6-.1 0-.1.1-.2.1-.8.4-1.5.7-2.1.9.5-.4 1.2-.8 1.9-1.2.1 0 .1-.1.2-.1-.7-.2-1.5-.1-2.2.2-.7.4-1.3 1-1.5 1.8z" style="" fill="#D4C213"></path><path class="st4" d="M61.1 48.8c-.4-.7-1-1.3-1.8-1.6-.7-.2-1.5-.2-2.2.1.1 0 .1 0 .2.1.8.3 1.6.6 2.1.8-.6-.1-1.4-.3-2.2-.5-.1 0-.1 0-.2-.1.4.6 1 1.1 1.7 1.4.8.3 1.6.2 2.4-.2z" style="" fill="#D4C213"></path><path class="st4" d="M62.5 40.7c-.6-.6-1.4-.8-2.3-.8-.8.1-1.5.4-2 .9h.2c.8-.1 1.7-.1 2.3 0-.6.2-1.4.3-2.2.3h-.2c.6.5 1.3.7 2.1.6.8.1 1.6-.3 2.1-1z" style="" fill="#D4C213"></path><path class="st2" d="M53.7 40.4c-.5-.9-1.3-1.6-2.2-1.9-.9-.3-1.8-.2-2.7.2.1 0 .2.1.3.1 1 .3 1.9.7 2.6 1-.7-.1-1.7-.3-2.7-.6-.1 0-.2-.1-.3-.1.5.8 1.2 1.4 2.1 1.7 1 .2 2 .1 2.9-.4z" style="" fill="#22732C"></path><path class="st2" d="M48.5 34c-.8 0-1.6.4-2.2 1.1-.5.6-.7 1.3-.7 2.1 0-.1.1-.1.1-.2.5-.6 1.1-1.2 1.6-1.6-.3.5-.8 1.2-1.3 1.8 0 .1-.1.1-.1.2.7-.1 1.4-.5 1.9-1 .5-.7.7-1.5.7-2.4z" style="" fill="#22732C"></path><path class="st3" d="M24.7 52.1c.8-.2 1.5-.6 2-1.3.4-.6.6-1.4.5-2.1 0 .1-.1.1-.1.2-.5.7-1 1.4-1.4 1.8.2-.6.6-1.3 1.1-2 0-.1.1-.1.1-.2-.7.2-1.3.6-1.8 1.3-.5.7-.6 1.5-.4 2.3z" style="" fill="#99CC33"></path><path class="st3" d="M57.8 52.7c-.8-.2-1.5-.6-2-1.3-.4-.6-.6-1.4-.5-2.1 0 .1.1.1.1.2.5.7 1 1.4 1.4 1.8-.2-.6-.6-1.3-1.1-2 0-.1-.1-.1-.1-.2.7.2 1.3.6 1.8 1.3.4.6.6 1.5.4 2.3z" style="" fill="#99CC33"></path><path class="st2" d="M29.6 39.5c.6.6 1.4.8 2.3.8.8-.1 1.5-.4 2-.9h-.2c-.8.1-1.7.1-2.3 0 .6-.2 1.4-.3 2.2-.3h.2c-.6-.5-1.3-.7-2.1-.6-.8-.1-1.6.3-2.1 1z" style="" fill="#22732C"></path><path class="st1" d="M27.8 48.6c.8 0 1.6-.2 2.3-.8.6-.5.9-1.2 1-2l-.2.2c-.6.6-1.3 1.1-1.8 1.4.4-.5.9-1.1 1.5-1.7.1-.1.1-.1.2-.1-.7 0-1.5.3-2 .8-.6.6-.9 1.4-1 2.2z" style="" fill="#44A834"></path><path class="st2" d="M33.8 33.3c-.3.8-.2 1.7.2 2.5.4.7 1 1.2 1.7 1.5 0-.1-.1-.1-.1-.2-.4-.8-.7-1.5-.9-2.1.4.5.8 1.2 1.2 2 0 .1.1.1.1.2.2-.7.1-1.5-.3-2.2-.4-.9-1.1-1.4-1.9-1.7z" style="" fill="#22732C"></path><path class="st2" d="M38.1 35.8c.8.2 1.4.6 1.9 1.3.4.6.5 1.3.4 2 0-.1-.1-.1-.1-.2-.4-.7-.9-1.3-1.3-1.7.2.5.6 1.2 1 1.9 0 .1.1.1.1.2-.7-.2-1.3-.6-1.6-1.2-.4-.8-.5-1.6-.4-2.3z" style="" fill="#22732C"></path><path class="st2" d="M37.9 31.6c.8.1 1.5.5 2 1.2.4.6.6 1.3.6 2 0-.1-.1-.1-.1-.2-.5-.6-1-1.2-1.4-1.6.2.5.7 1.2 1.1 1.8 0 .1.1.1.1.2-.7-.1-1.3-.5-1.7-1.1-.6-.7-.8-1.5-.6-2.3z" style="" fill="#22732C"></path><path class="st1" d="M37.9 26.7c.8.2 1.4.8 1.7 1.5.3.6.4 1.4.2 2.1 0-.1-.1-.1-.1-.2-.4-.7-.7-1.4-1.1-1.8.2.5.4 1.3.8 2 0 .1.1.1.1.2-.7-.3-1.2-.8-1.5-1.4-.3-.8-.4-1.7-.1-2.4z" style="" fill="#44A834"></path><path class="st2" d="M29.3 33.8c0 .7.4 1.4.9 1.8.5.4 1.1.6 1.7.6l-.1-.1c-.5-.5-1-1-1.4-1.3.4.3 1 .7 1.5 1.1l.1.1c-.1-.6-.4-1.2-.9-1.6-.4-.4-1.1-.6-1.8-.6z" style="" fill="#22732C"></path><path class="st2" d="M43.3 32.7c-.6.4-.9 1.1-1 1.8-.1.6.1 1.3.5 1.8v-.2c.1-.7.2-1.4.3-1.9v2.1c.5-.4.8-1 .8-1.7.1-.6-.1-1.3-.6-1.9z" style="" fill="#22732C"></path><path class="st2" d="M43.8 29.2c-.8.2-1.4.8-1.7 1.5-.3.6-.4 1.4-.2 2.1 0-.1.1-.1.1-.2.4-.7.7-1.4 1.1-1.8-.2.5-.4 1.3-.8 2 0 .1-.1.1-.1.2.7-.3 1.2-.8 1.5-1.4.3-.8.4-1.6.1-2.4z" style="" fill="#22732C"></path><path class="st2" d="M48.9 30.2c-.8 0-1.6.4-2.2 1.1-.5.6-.7 1.3-.7 2.1 0-.1.1-.1.1-.2.6-.6 1.1-1.2 1.6-1.6-.3.5-.8 1.2-1.3 1.8 0 .1-.1.1-.1.2.7-.1 1.4-.5 1.9-1 .6-.7.8-1.6.7-2.4z" style="" fill="#22732C"></path><path class="st2" d="M53.5 34.1c-.7-.3-1.6-.2-2.3.1-.6.3-1.2.9-1.4 1.5.1 0 .1-.1.2-.1.7-.4 1.5-.6 2-.8-.5.3-1.1.7-1.9 1.1 0 .1-.1.1-.2.1.7.2 1.4.1 2.1-.2.7-.3 1.3-.9 1.5-1.7z" style="" fill="#22732C"></path><path class="st1" d="M25.2 41.8c.3.8.8 1.4 1.6 1.8.7.3 1.5.4 2.2.2-.1 0-.1-.1-.2-.1-.8-.4-1.5-.8-2-1.1.6.2 1.3.4 2.1.8.1 0 .1.1.2.1-.3-.7-.8-1.2-1.5-1.6-.7-.3-1.6-.4-2.4-.1z" style="" fill="#44A834"></path><path class="st1" d="M25.8 36.9c-.1.8.1 1.7.7 2.3.5.6 1.2 1 1.9 1.1 0-.1-.1-.1-.1-.2-.5-.7-1-1.3-1.3-1.8.5.4 1 1 1.6 1.6 0 .1.1.1.1.2 0-.7-.2-1.5-.7-2.1-.6-.7-1.3-1.1-2.2-1.1z" style="" fill="#44A834"></path><path class="st1" d="M26.3 33.4c0 .7.4 1.4.9 1.8.5.4 1.1.6 1.7.6l-.1-.1c-.5-.5-1-1-1.4-1.3.4.3 1 .7 1.5 1.1l.1.1c0-.6-.3-1.2-.8-1.6-.5-.4-1.2-.7-1.9-.6z" style="" fill="#44A834"></path><path class="st1" d="M28.2 30.5c0 .7.4 1.4.9 1.8.5.4 1.1.6 1.7.6l-.1-.1c-.5-.5-1-1-1.4-1.3.4.3 1 .7 1.5 1.1l.1.1c-.1-.6-.4-1.2-.9-1.6-.4-.5-1.1-.7-1.8-.6z" style="" fill="#44A834"></path><path class="st1" d="M32.8 30.3c.8-.1 1.6.1 2.2.6.6.4 1 1.1 1.1 1.8-.1 0-.1-.1-.2-.1-.6-.5-1.3-.9-1.8-1.2.4.4 1 .9 1.6 1.4.1 0 .1.1.2.1-.7 0-1.4-.2-2-.6-.6-.5-1-1.2-1.1-2z" style="" fill="#44A834"></path><path class="st1" d="M43.8 26.3c-.8.2-1.5.6-1.9 1.3-.4.6-.5 1.3-.4 2 0-.1.1-.1.1-.2.4-.7.9-1.3 1.3-1.7-.2.5-.6 1.2-1 1.9 0 .1-.1.1-.1.2.7-.2 1.3-.6 1.7-1.2.3-.7.4-1.5.3-2.3z" style="" fill="#44A834"></path><path class="st1" d="M39.1 23.9c.6.3 1 .8 1.2 1.4.2.5.1 1.1-.1 1.6 0-.1 0-.1-.1-.2-.2-.6-.4-1.2-.6-1.6.1.4.2 1 .4 1.7 0 .1 0 .1.1.2-.5-.3-.9-.7-1-1.3-.2-.6-.2-1.3.1-1.8z" style="" fill="#44A834"></path><path class="st1" d="M46 25c.4.6.4 1.4.2 2-.2.6-.6 1.2-1.1 1.5 0-.1 0-.1.1-.2.2-.7.4-1.4.4-1.9-.2.5-.5 1.1-.7 1.8 0 .1 0 .1-.1.2-.3-.6-.3-1.2-.1-1.9.2-.6.7-1.1 1.3-1.5z" style="" fill="#44A834"></path><path class="st1" d="M48.7 26.3c.4.6.4 1.4.2 2-.2.6-.6 1.2-1.1 1.5 0-.1 0-.1.1-.2.2-.7.4-1.4.4-1.9-.2.5-.5 1.1-.7 1.8 0 .1 0 .1-.1.2-.3-.6-.3-1.2-.1-1.9.2-.6.7-1.2 1.3-1.5z" style="" fill="#44A834"></path><path class="st1" d="M52.3 27.7c-.1.7-.4 1.4-.9 1.8-.5.4-1.1.6-1.8.6 0 0 .1-.1.2-.1.6-.5 1.1-1 1.4-1.3-.4.3-1 .7-1.6 1.1l-.1.1c.1-.6.4-1.2.9-1.6.5-.4 1.2-.6 1.9-.6z" style="" fill="#44A834"></path><path class="st1" d="M53.7 30.5c-.1.7-.4 1.4-.9 1.8-.5.4-1.1.6-1.8.6 0 0 .1-.1.2-.1.6-.5 1.1-1 1.4-1.3-.4.3-1 .7-1.6 1.1l-.1.1c.1-.6.4-1.2.9-1.6.4-.5 1.1-.7 1.9-.6z" style="" fill="#44A834"></path><path class="st1" d="M56.1 42.6c-.6-.4-1.3-.6-2-.4-.6.1-1.2.5-1.6 1h.2c.7-.1 1.4-.2 1.9-.2-.5.2-1.1.4-1.9.5h-.2c.6.3 1.2.4 1.8.3.8-.1 1.4-.6 1.8-1.2z" style="" fill="#44A834"></path><path class="st1" d="M56.8 39.3c-.4-.8-1-1.4-1.8-1.7-.7-.3-1.5-.2-2.3.1.1 0 .1 0 .2.1.8.3 1.6.6 2.1.9-.6-.1-1.4-.3-2.3-.6-.1 0-.1 0-.2-.1.4.7 1 1.2 1.7 1.4.9.3 1.8.3 2.6-.1z" style="" fill="#44A834"></path><path class="st1" d="M56.5 33.2c-.1.7-.4 1.4-.9 1.8-.5.4-1.1.6-1.8.6 0 0 .1-.1.2-.1.6-.5 1.1-1 1.4-1.3-.4.3-1 .7-1.6 1.1l-.1.1c.1-.6.4-1.2.9-1.6.5-.4 1.2-.6 1.9-.6z" style="" fill="#44A834"></path><path class="st1" d="M54.5 48.6c-.8 0-1.6-.2-2.3-.8-.6-.5-.9-1.2-1-2l.2.2c.6.6 1.3 1.1 1.8 1.4-.4-.5-.9-1.1-1.5-1.7-.1-.1-.1-.1-.2-.1.7 0 1.5.3 2 .8.7.6 1 1.4 1 2.2z" style="" fill="#44A834"></path><path class="st1" d="M29.7 27.9c.7.1 1.3.4 1.7.9.4.5.6 1.1.5 1.7l-.1-.1c-.4-.5-.9-1-1.2-1.3.2.4.6 1 1 1.5l.1.1c-.6-.1-1.1-.4-1.5-.9-.4-.6-.6-1.3-.5-1.9z" style="" fill="#44A834"></path><path class="st1" d="M42.4 23.4c-.6.3-1 .7-1.2 1.3-.2.5-.1 1.1.1 1.6 0-.1 0-.1.1-.2.2-.6.4-1.2.6-1.5-.1.4-.2 1-.4 1.6 0 .1 0 .1-.1.2.5-.3.8-.7 1-1.3.2-.5.2-1.2-.1-1.7z" style="" fill="#44A834"></path><path class="st1" d="M35.2 24.5c.6.2 1.1.6 1.4 1.1.3.5.4 1.1.2 1.6 0-.1-.1-.1-.1-.1-.3-.5-.6-1.1-.9-1.4.1.4.4 1 .7 1.5l.1.1c-.5-.2-1-.6-1.2-1-.3-.6-.4-1.2-.2-1.8z" style="" fill="#44A834"></path><path class="st0" d="M41 0a40.97 40.97 0 0 1 41 41 40.97 40.97 0 0 1-41 41A40.97 40.97 0 0 1 0 41 40.97 40.97 0 0 1 41 0zm28 13C61.9 5.8 51.9 1.4 41 1.4 30.1 1.4 20.1 5.8 13 13 5.8 20.1 1.4 30.1 1.4 41c0 10.9 4.4 20.9 11.6 28 7.2 7.2 17.1 11.6 28 11.6 10.9 0 20.9-4.4 28-11.6 7.2-7.2 11.6-17.1 11.6-28 0-10.9-4.4-20.9-11.6-28z" style="" fill="#524840"></path><path class="st0" d="M7.1 41c1 0 1.8.8 1.8 1.8s-.8 1.8-1.8 1.8-1.8-.8-1.8-1.8.8-1.8 1.8-1.8z" style="" fill="#524840"></path><path class="st0" d="M74.7 41c1 0 1.8.8 1.8 1.8s-.8 1.8-1.8 1.8-1.8-.8-1.8-1.8.8-1.8 1.8-1.8z" style="" fill="#524840"></path><path class="st0" d="M10.9 31.2c.1 0 .5.2.8.3.2.1.4.2.4.4 0 .1 0 .2-.1.3v.2c.1 0 .1 0 .1-.2.1-.3.3-.8.3-1 .1-.2.3-.7.5-1.3v-.2s-.1 0-.1.1-.1.3-.2.4c-.1.2-.3.3-.6.2-.4-.1-.7-.2-.8-.3l-.7-.2c-.3-.1-.5-.2-.8-.4-.3-.3-1.9-2.1-2.1-2.5-.2-.3-.2-.4-.3-.6V26v-.2s-.1 0-.1.1c-.1.2-.2.7-.3.9-.1.2-.2.5-.3.8v.2c.1 0 .1-.1.1-.1.1-.1.2-.1.3-.1.1 0 .2.1.4.3.2.2 1.7 1.9 1.9 2-.3.1-2.7.5-3 .6H6c-.1 0-.1-.1-.1-.2v-.2s-.1 0-.1.1c-.1.4-.2.7-.3.9-.1.3-.3.9-.4 1v.2c.1 0 .1 0 .1-.1s.1-.2.2-.3c.1-.1.4-.3.8-.4.5-.1 2.7-.6 2.9-.7.3 0 .5 0 .9.1l.9.3zm4.7-6c1.2-1.9.6-3.9-1.1-5-1.7-1.1-3.5-.6-4.7 1.2-1.4 2.2-.3 4.1.9 4.9 1.4.8 3.5 1 4.9-1.1zm-.2-.6c-.9 1.4-2.7 1.5-4.2.5-1.8-1.2-1.7-2.5-1.2-3.3.8-1.2 2.4-1.5 4.1-.4 2.1 1.3 1.6 2.7 1.3 3.2zm1.2-5.7c.9.9 1.6 1.2 2.2 1.1.9 0 1.5-.6 1.8-.9.4-.4.8-.9.9-1.7.1-1-.5-1.8-1.2-2.5l-.6-.7c-.9-1-1.1-1.1-1.3-1.4-.2-.2-.3-.4-.1-.6l.2-.2c.1-.1.1-.1.1-.2 0 0-.1 0-.2.1l-.7.7-.7.7c-.1.1-.1.1-.1.2h.2l.2-.2c.3-.2.4-.1.6.1l1.3 1.3.8.8c.6.7 1.2 1.2 1.1 1.9 0 .5-.3.9-.5 1.2-.2.2-.5.5-1 .5-.6 0-1.1-.2-2-1.1l-.8-.9c-.9-1-1.1-1.1-1.3-1.4-.2-.2-.3-.4-.1-.6l.2-.2c.1-.1.1-.1 0-.2 0 0-.1 0-.2.1l-.8.8c-.2.2-.6.5-.9.9-.1.1-.1.1-.1.2h.2c.1-.1.2-.2.3-.2.3-.2.4-.1.6.1l1.3 1.3.6 1zm6.6-5.3c.4.7.7 1.3.9 1.6.1.2.2.4 0 .5-.1.1-.1.1-.3.2l-.1.1c0 .1.1 0 .2 0 .3-.2.8-.5.9-.6.1-.1.7-.4 1.1-.6.1-.1.1-.1.1-.2h-.1c-.1.1-.3.1-.4.2-.2.1-.4 0-.5-.2-.2-.3-.6-.9-1-1.6v-.1l.7-.4h.2c.2.1.8.4 1.4.6.8.3 1.3.5 1.7.5.3 0 .5-.1.9-.3l.7-.4c.1-.1.1-.1.1-.2h-.1c-.1 0-.1.1-.2.1s-.5.2-1.1 0c-.7-.2-1.6-.6-2.8-1.1.4-1.1.3-1.7 0-2.3-.3-.5-.8-.7-1.1-.7-.6 0-1.1.2-1.6.5-.2.1-.8.5-1.1.6-.2.1-.7.3-1.1.6-.1.1-.2.1-.1.2 0 .1.1 0 .2 0 .1-.1.2-.1.3-.1.3-.1.4 0 .6.2.2.2.3.4.9 1.6l.7 1.3zm-.9-3.6v-.1c.1-.1.2-.2.4-.3.5-.3 1.3-.4 2 .7.4.6.3 1.1.2 1.4-.1.2-.2.3-.5.4l-.6.3c-.1 0-.1 0-.1-.1L22.3 10zM36 11.4c.5-.1 1.2-.3 1.5-.6.1-.1.2-.1.2-.3 0-.3 0-1.1-.1-1.2 0-.1 0-.1-.1-.1s-.1.1-.1.2c0 .2-.1.4-.2.6-.3.5-.7.7-1.5.8-1.1.3-2.9-.4-3.4-2.4-.2-.8-.2-1.7.3-2.4.3-.4.7-.7 1.5-.9.8-.1 1.5 0 1.9.2.3.2.4.4.5.7 0 .1.1.2.1.2.1 0 .1-.1.1-.2 0-.2-.1-.6-.2-.9-.1-.3 0-.4-.1-.5 0-.1-.1-.1-.2-.1-.3 0-.6 0-.9.1-.4 0-.7.1-1.3.2-1.3.3-2 .8-2.5 1.5-.6.9-.6 2-.5 2.6.2.8.6 1.7 1.6 2.3 1.2.5 2.2.5 3.4.2zm6.3-.3c2.2.1 3.7-1.5 3.7-3.5s-1.3-3.3-3.5-3.4C40 4.1 38.9 6 38.9 7.5c0 1.6.9 3.5 3.4 3.6zm.4-.5c-1.7 0-2.7-1.5-2.6-3.3.1-2.2 1.2-2.7 2.2-2.7 1.4 0 2.5 1.3 2.5 3.3 0 2.5-1.5 2.7-2.1 2.7zm4.9 0c-.1.3-.3.6-.6.5-.1 0-.2 0-.3-.1h-.2c0 .1 0 .1.1.1.3.1.7.2.8.3.1 0 .5.2.9.3h.2s0-.1-.1-.1-.2-.1-.3-.2c-.1-.1-.2-.2-.2-.4 0-.1.1-.2.2-.4l1.5-3.1c.1.7.2 1.9.3 2.1 0 .3.2 1.8.3 2.2 0 .3.1.5.1.5.1 0 .1 0 .5-.4L54.1 9l-.7 3.8c0 .2-.1.3-.2.3s-.1 0-.1.1c0 0 0 .1.2.2.3.1 1.5.5 1.7.6h.2s0-.1-.1-.1-.3-.1-.5-.3c-.2-.2-.2-.4-.1-1l1-5.3c0-.2 0-.3-.1-.3s-.1 0-.3.1L51.3 11l-.7-5.4c0-.3-.1-.3-.1-.3-.1 0-.1 0-.2.2l-2.7 5.1zm10 2.3c-.4.7-.8 1.3-1 1.6-.2.2-.3.3-.5.3-.1 0-.2-.1-.3-.1-.1-.1-.1-.1-.2 0 0 .1 0 .1.1.2.3.2.8.5.9.6.2.1.6.4 1.1.8.1.1.2.1.2 0 0 0 0-.1-.1-.1-.1-.1-.3-.2-.4-.3-.2-.2-.1-.4 0-.6.2-.3.5-.9 1-1.6l1.9-3 .1-.1c.1 0 .2.1.3.2.2.1.4.3.6.8.2.6-.1 1.1-.3 1.4-.5.8-1.4.9-1.8.6-.2-.1-.2-.1-.3-.1v.1s.1.1.2.1c1 .7 2.3.4 3-.6.3-.4.3-.9.2-1.1 0-.2-.2-.7-1.1-1.3-.3-.2-.8-.5-1.1-.7-.2-.1-.7-.5-1.1-.7.2-.3.1-.3.1-.3 0 .1 0 .1.1.1.1.1.2.2.3.2.2.2.2.4 0 .6-.1.2-.3.5-1 1.6l-.9 1.4zm6.2 5.2v.1l-.7 1.8c0 .1-.1.1-.2.1-.1-.1-.1-.1-.1 0 0 0 0 .1.1.2.5.5 1 .9 1.2 1.2.2.2.3.3.4.2v-.1c-.1-.1-.2-.2-.2-.3-.1-.2-.2-.4.1-1.2.5-1.4 1.9-4.9 2.1-5.4.1-.2.1-.3 0-.4-.1-.1-.2 0-.4.1l-5.4 2.4c-.4.2-.8.3-1.1.1-.1 0-.2-.1-.2-.2 0 0-.1-.1-.1 0 0 0 0 .1.1.2.3.3.7.6.8.7l.7.7c.1.1.1.1.2 0v-.1l-.4-.2c-.2-.2-.2-.3-.1-.4.1-.1.2-.2.5-.3l1.2-.5h.1l1.4 1.3zm-1-1.5c0-.1 0-.1 0 0l2.1-1.1h.1v.1l-.9 2.1H64l-1.2-1.1zm6.4 3.6c0 .2-.4 1.6-.7 3-.3 1.3-.6 2.8-.8 3.6 0 .1-.1.3 0 .4 0 .1.1.1.3 0l4.7-2.9c.4-.3.6-.3.8-.1l.2.2c.1.1.1.1.2.1s0-.1 0-.2c-.2-.4-.4-.6-.5-.7-.1-.2-.3-.5-.6-.9-.1-.1-.1-.2-.2-.1v.2c.1.1.2.3.2.4 0 .2-.1.4-.5.7L69 25.8c0-.2.5-1.9.6-2.7.4-1.8.8-3.6.9-3.8.1-.2.1-.3.1-.4 0-.1-.2 0-.3.1l-4.4 2.7c-.7.3-.9.4-1.1.3l-.3-.3c0-.1-.1-.1-.1-.1-.1 0 0 .1 0 .2.2.4.5.7.5.8.1.1.3.5.6.9.1.1.1.2.2.1v-.2c-.1-.1-.2-.3-.2-.4 0-.2.1-.4.7-.8l3-2zm1.6 10c-.1 0-.5.2-.8.3-.2.1-.5.1-.5-.1 0-.1-.1-.2-.1-.3 0-.1-.1-.1-.1-.1-.1 0-.1.1 0 .2.1.3.3.8.4 1 .1.2.2.8.4 1.3 0 .1.1.2.1.1 0 0 .1-.1 0-.2 0-.1-.1-.3-.1-.4-.1-.3.1-.4.3-.5.3-.1.7-.3.8-.3l.7-.2c.3-.1.5-.2.9-.2s2.8.5 3.2.7c.3.1.4.2.6.3.1.1.2.2.2.3 0 .1.1.1.1.1.1 0 0-.1 0-.2-.1-.2-.3-.7-.3-.9-.1-.2-.1-.5-.2-.8 0-.1-.1-.1-.1-.1-.1 0 0 .1 0 .2 0 .2-.1.2-.1.2-.1 0-.3.1-.5 0-.3 0-2.5-.5-2.7-.5.2-.2 1.8-2.1 2-2.3l.2-.2c.1 0 .1 0 .2.1s.1.2.2.2c0 0 .1-.1 0-.1-.1-.4-.3-.7-.3-.9-.1-.3-.3-.9-.3-1.1 0-.1-.1-.1-.1-.1-.1 0-.1.1 0 .1v.4c0 .2-.2.5-.4.8-.3.4-1.8 2.2-1.9 2.3-.2.2-.4.3-.8.5l-1 .4z" style="" fill="#524840"></path><path class="st0" d="M8.6 54.1c-.1 0-.3.1-.5.2h-.3s-.1-.1-.1-.2 0-.1-.1-.1v.1c.1.2.2.5.3.7.1.1.2.5.3.8 0 .1.1.1.1.1v-.1c0-.1-.1-.2-.1-.3 0-.2 0-.2.2-.3.2-.1.4-.2.5-.2l.4-.2c.2-.1.3-.1.5-.1s1.7.3 2 .3c.2.1.2.1.3.2.1.1.1.1.1.2s.1.1.1.1v-.1c0-.1-.2-.4-.2-.5-.1-.2-.1-.3-.2-.5 0-.1 0-.1-.1-.1v.1c0 .1 0 .1-.1.2h-.3c-.2 0-1.5-.2-1.6-.2.1-.1 1-1.3 1.1-1.4l.1-.1h.1l.1.1v-.1c-.1-.2-.2-.5-.3-.6-.1-.2-.2-.6-.3-.6 0-.1-.1-.1-.1-.1V51.7c0 .1-.1.3-.2.5-.2.3-1 1.4-1 1.5-.1.1-.2.2-.5.3l-.2.1zm2 6c.8 1.2 2 1.4 3.1.8 1-.7 1.2-1.8.5-3-.9-1.4-2.2-1.3-3-.8-.9.4-1.5 1.6-.6 3zm.3 0c-.6-.9-.2-1.9.8-2.5 1.1-.7 1.8-.3 2.1.3.5.8.2 1.7-.8 2.4-1.2.8-1.9.1-2.1-.2zm3.8 2.8c-.6.5-.7 1-.7 1.3 0 .5.4 1 .6 1.2.2.3.6.5 1.1.6.6.1 1.1-.3 1.5-.7l.4-.4.8-.8c.1-.1.2-.1.3-.1.1 0 .1.1.1.1s.1.1.1 0V64c-.1-.2-.4-.4-.5-.5 0 0-.2-.3-.4-.5v.2s.1.1.1.2c.1.2.1.2 0 .4l-.8.8-.5.4c-.4.4-.7.7-1.2.7-.3 0-.6-.2-.7-.3-.1-.1-.3-.3-.3-.7 0-.3.1-.7.7-1.2l.5-.5.8-.8c.1-.1.2-.1.3-.1.1 0 .1.1.1.1s.1.1.1 0v-.1l-.5-.5-.6-.6-.1-.1v.1c.1.1.1.1.1.2.1.2.1.2 0 .4l-.8.8-.5.5zm4.3 4.5c-.3.4-.6.7-.7.9-.1.1-.2.2-.3.1 0 0-.1-.1-.2-.1h-.1v.1c.2.1.5.3.6.4.1 0 .4.3.7.5.1 0 .1.1.1 0v-.1c-.1 0-.1-.1-.2-.2s-.1-.2 0-.4.4-.5.7-.9v-.1h.1l.3.4s.1 0 .1.1v.9c0 .5 0 .8.1 1.1.1.1.2.3.4.5l.4.3c.1 0 .1.1.1 0v-.1s-.1 0-.1-.1c-.1-.1-.2-.2-.3-.6-.1-.5-.1-1.1-.1-1.9.7 0 1.1-.2 1.3-.5.2-.3.2-.6.1-.8-.1-.3-.4-.6-.7-.8-.1-.1-.5-.4-.7-.5-.1-.1-.4-.3-.6-.5-.1 0-.1-.1-.1 0v.1c.1 0 .1.1.2.1.1.1.1.2 0 .4-.1.1-.2.3-.7.9l-.4.8zm1.8-1.3s.1-.1 0 0c.1 0 .2.1.4.2.3.2.6.7.1 1.3-.3.4-.6.4-.8.4-.1 0-.2 0-.4-.2l-.3-.3v-.1l1-1.3zm5.1 5.7c-.2.4-.4.8-.6 1-.1.2-.1.2-.2.2 0 0-.1 0-.2-.1h-.1s0 .1.1.1c.2.1.5.3.6.3.1.1.5.3.8.4h.1s0-.1-.1-.1-.2-.1-.2-.1c-.1 0-.1-.1-.1-.3l.5-1 1-1.9.6.3c.4.2.5.5.4.6v.2s.1 0 .1-.1c.1-.1.3-.5.3-.6v-.1h-.1c-.1 0-.2-.1-.3-.2l-2-1.1c-.2-.1-.3-.2-.5-.3l-.2-.2s-.1 0-.1.1c0 0-.4.4-.4.5v.1h.1s.1-.1.2-.1c.1-.1.3 0 .5.1l.7.4-.9 1.9zm5.2 2.3c.1 0 .1 0 0 0l.1 1.2c0 .1 0 .1-.1.1H31s0 .1.1.1c.4.2.8.3 1 .3.2.1.2.1.2 0 0 0 0-.1-.1-.1s-.1 0-.2-.1c-.1 0-.2-.2-.3-.7-.1-.9-.3-3.2-.3-3.5 0-.1 0-.2-.1-.2s-.1 0-.2.2l-2.4 2.7c-.2.2-.3.3-.6.3h-.2-.1s0 .1.1.1l.6.2c.2.1.4.2.6.2h.1s0-.1-.1-.1H29c-.2-.1-.2-.1-.2-.2s.1-.2.2-.3l.5-.6h.1l1.5.4zm-1-.6s0-.1 0 0l.9-1.1v.1l.1 1.4-1-.4zm8 2.4c0-.3.1-.5.1-.6 0-.2.1-.3.2-.3H38.7s0-.1-.1-.1c-.2 0-.5 0-.6-.1-.2 0-.6-.1-.8-.1h-.1s0 .1.1.1h.2c.2.1.2.1.2.3 0 .2 0 .4-.1.6l-.1.5c0 .1 0 .1-.1.2h-.4c-1.2-.2-1.8-1.1-1.6-2.2.1-.6.3-1 .7-1.2.4-.3.8-.2 1.1-.2.6.1 1 .4 1.1.6.1.2.1.3.1.5v.1s.1 0 .1-.1c.1-.7.1-.8.1-.9 0 0 0-.1-.1-.1s-.3-.1-.4-.1c-.1 0-.6-.2-1-.2-.5-.1-1-.1-1.5.2-.5.2-1.1.8-1.2 1.6-.2 1.5.9 2.2 2.3 2.4.4.1 1 .1 1.4-.1.1 0 .1 0 .1-.2v-.6zm3.7-1.5v-1.1c0-.2 0-.3.2-.3h.2c.1 0 .1 0 .1-.1H40.6c-.1 0-.1 0-.1.1 0 0 0 .1.1.1h.2c.2 0 .2.1.2.3v3.1c0 .2 0 .3-.2.3h-.2c-.1 0-.1 0-.1.1 0 0 0 .1.1.1H43c.3 0 .3 0 .3-.2s.1-.6.1-.6c0-.1 0-.1-.1-.1 0 0-.1 0-.1.1s-.1.3-.1.3c-.1.1-.3.2-.6.2-.4 0-.6 0-.7-.1-.1-.1-.1-.4-.1-1.1l.1-1.1zm4.1.6c.1.5.2.9.2 1.1 0 .2 0 .2-.1.3 0 0-.1 0-.2.1-.1 0-.1 0-.1.1h.1c.2 0 .6-.1.7-.1.1 0 .5-.1.9-.1.1 0 .1 0 .1-.1 0 0 0-.1-.1 0h-.3c-.2 0-.2-.1-.3-.2-.1-.2-.1-.6-.2-1.1l-.2-.9c-.1-.8-.2-.9-.2-1.1 0-.2 0-.3.2-.3h.2c.1 0 .1 0 .1-.1h-.1c-.2 0-.6.1-.7.1-.2 0-.5.1-.7.1-.1 0-.1 0-.1.1s0 .1.1 0h.2c.1 0 .2.1.2.2 0 .2.1.3.2 1.1l.1.8zm3.7-2.1c.1 0 .9.5 1.7.8.7.3 1.6.7 2 .9.1 0 .2.1.3 0 0 0 .1-.1 0-.2l-1.1-3.2c-.1-.3-.1-.4 0-.5.1 0 .1-.1.2-.1s.1-.1.1-.1h-.1c-.3.1-.4.2-.5.2-.1 0-.4.1-.7.2-.1 0-.1.1-.1.1h.1c.1 0 .2-.1.3-.1.1 0 .2.1.3.4l.8 2.2c-.1 0-1-.5-1.5-.7-1-.5-2.1-1-2.2-1-.1-.1-.2-.1-.3-.1-.1 0-.1.1 0 .2l1 3c.1.4.2.6.1.7-.1 0-.2.1-.2.1l-.1.1h.1c.3-.1.5-.2.6-.2.1 0 .3-.1.7-.2.1 0 .1-.1.1-.1h-.1c-.1 0-.2.1-.3.1-.1 0-.2-.1-.4-.5l-.8-2zM56 72l.5 1c.1.1.1.3 0 .3 0 0-.1.1-.2.1s-.1.1-.1.1h.1c.1-.1.2-.1.3-.2.1-.1.2-.1.3-.1.1-.1.3-.2.6-.3.2-.1.5-.3.9-.4.2-.1.2-.1.2-.3 0-.1-.1-.5-.2-.6l-.1-.1v.1c.1.2.1.3 0 .5-.1.1-.3.2-.4.3-.5.3-.7.3-.9-.1-.1-.1-.3-.5-.4-.7l-.2-.4v-.1c.1-.1.7-.3.8-.4.2-.1.3 0 .4 0 0 .1.1.1.1.2h.1v-.1s-.1-.2-.1-.3c-.1-.3-.1-.3-.1-.4h-.1v.1c0 .1-.1.1-.2.2s-.7.4-.9.5h-.1l-.6-1.2v-.1c.1-.1.7-.3.8-.4.3-.1.3-.1.4 0 .1 0 .1.1.1.2 0 0 0 .1.1 0v-.1c0-.1-.1-.3-.1-.3-.1-.2-.1-.3-.1-.3h-.1l-.1.1s-.1.1-.2.1c-.1.1-1.2.6-1.3.7-.1.1-.5.2-.7.4-.1 0-.1.1-.1.1h.1c.1 0 .2-.1.2-.1.2 0 .2 0 .3.1.1.1.2.3.5 1l.5.9zm5.8-4.7s0 .1 0 0l-.1-.1c-.5-.6-.6-.8-.7-.9-.1-.2-.1-.2 0-.4l.1-.1c.1 0 .1-.1 0-.1H61c-.2.1-.5.4-.6.5-.1.1-.4.3-.6.5-.1 0-.1.1-.1.1h.1c.1-.1.1-.1.2-.1.2-.1.2-.1.4.1.1.1.2.2.7.9l.6.7c.3.4.6.7.7.9.1.1.1.2.1.3l-.1.1c-.1 0 0 .1 0 .1h.1c.2-.1.4-.4.5-.5.1-.1.4-.3.7-.6.1 0 .1-.1 0-.1h-.1c-.1.1-.2.1-.2.2-.1.1-.2 0-.3-.1-.2-.2-.4-.5-.7-.8l-.4-.3 1.6-1.3.3.3c.3.4.6.7.7.9.1.1.1.2.1.3l-.1.1v.1h.1c.2-.1.5-.4.5-.5.1-.1.4-.3.7-.5.1 0 .1-.1 0-.1h-.1c-.1.1-.2.1-.2.2-.1.1-.2 0-.3-.1-.2-.2-.4-.5-.8-.9l-.6-.7c-.5-.6-.6-.7-.7-.9-.1-.2-.1-.2 0-.4 0-.1.1-.1.1-.1s.1-.1 0-.1h-.1c-.2.1-.4.4-.5.5-.1.1-.4.3-.6.5l-.2.1h.1c.1 0 .1-.1.2-.1.2-.1.2-.1.4.1.1.1.2.3.8.9l.1.1v.1l-1.7 1.2zm4.9-3.6c.4.3.7.6.8.8.1.1.2.2.1.3 0 0-.1.1-.1.2v.1h.1l.3-.3.2-.2c.1-.1.3-.3.4-.5l.7-.7c.1-.2.2-.2.1-.3-.1-.1-.3-.4-.4-.5 0 0-.1-.1-.1 0v.1c.1.2.2.3.1.4-.1.1-.2.3-.3.4-.4.4-.6.5-.8.2-.1-.1-.4-.4-.6-.5l-.3-.3v-.1c.1-.1.5-.6.6-.6.2-.1.3-.1.4-.1.1 0 .1.1.2.1h.1v-.1s-.2-.2-.2-.3c-.2-.2-.2-.3-.3-.3h-.1v.1c0 .1 0 .1-.1.2l-.7.7h-.1l-1-.9v-.1c.1-.1.5-.6.6-.6.2-.2.3-.2.4-.1.1 0 .1.1.2.1h.1v-.1c0-.1-.2-.2-.2-.3-.2-.2-.2-.2-.2-.3h-.1v.1s-.1.1-.1.2c-.1.1-.9 1-1 1.1l-.6.6c-.1.1-.1.1 0 .1h.1c.1-.1.1-.1.2-.1.2-.1.2-.1.4 0l.8.8.4.7zm2.9-3.8c.4.3.8.5.9.7.1.1.2.2.1.3 0 0 0 .1-.1.2v.1s.1 0 .1-.1c.1-.2.3-.5.4-.6 0-.1.3-.4.5-.7v-.1h-.1c0 .1-.1.2-.2.2-.1.1-.2.1-.4 0s-.5-.3-1-.6h-.1v-.1l.3-.4s0-.1.1-.1h.9c.5 0 .8 0 1.1-.2.1-.1.3-.2.4-.4l.3-.4v-.1h-.1s0 .1-.1.1c-.1.1-.2.2-.6.3-.5.1-1.1.1-1.9.2-.1-.7-.2-1.1-.5-1.3-.3-.2-.6-.2-.8-.1-.3.1-.6.4-.8.7-.1.1-.4.6-.5.7-.1.1-.3.4-.4.6 0 .1-.1.1 0 .1h.1c0-.1.1-.1.1-.2.1-.1.2-.1.4 0 .1.1.3.2.9.6l1 .6zm-1.3-1.8s-.1 0 0 0c0-.1.1-.2.1-.4.2-.3.6-.6 1.3-.2.4.2.5.5.5.7 0 .1 0 .2-.1.4l-.3.3h-.1l-1.4-.8z" style="" fill="#524840"></path><path class="st0" d="M72.3 55.1c.5.2.8.3 1 .5.1.1.2.1.2.3 0 .1 0 .1-.1.2v.1s.1 0 .1-.1.1-.2.1-.4c0-.1.1-.2.1-.3.1-.2.1-.3.3-.6.1-.2.2-.5.4-.9.1-.2.1-.2 0-.3-.1-.1-.4-.2-.5-.3h-.1s0 .1.1.1c.2.1.3.2.3.4s-.1.4-.1.5c-.2.5-.4.6-.7.5-.1-.1-.6-.2-.7-.3l-.4-.2c.1-.1.3-.7.4-.8.1-.2.2-.2.3-.2.1 0 .1 0 .2.1h.1s0-.1-.1-.1c0 0-.2-.1-.3-.2-.2-.1-.3-.2-.3-.2h-.1v.4c0 .1-.3.8-.4.9H72l-1.2-.5v-.1c0-.1.3-.7.4-.8.1-.2.2-.3.3-.3H71.8s0-.1-.1-.1-.3-.1-.3-.2c-.2-.1-.3-.2-.3-.2H71v.1s0 .1-.1.2c0 .1-.5 1.2-.6 1.4-.1.1-.2.5-.3.7v.1s.1 0 .1-.1.1-.2.1-.2c.1-.1.2-.2.4-.1s.3.1 1 .4l.7.6z" style="" fill="#524840"></path></g></svg>