<svg xmlns="http://www.w3.org/2000/svg" x="0" y="0" viewBox="0 0 139.5 71.6" xml:space="preserve" width="139.5" height="71.6"><title>brand 01</title><g class="nc-icon-wrapper"><g id="Ellipse_533_1_" class="st0"><path class="st1" d="M35.8 1.4c-5.2 0-10.1 1.1-14.6 3.2l6.6 18.8s2-.8 2.2-.9c1.8-.7 3.7-1.1 5.8-1.1 8.3 0 15 6.7 15 15s-6.7 15-15 15-15-6.7-15-15c0-1.5.2-2.9.6-4.3 0-.1.4-1.7.4-1.7L2 27.5C1.3 30.3.9 33.3.9 36.3c0 19.3 15.7 35 35 35s35-15.7 35-35S55.2 1.4 35.8 1.4z" id="Ellipse_533" fill-rule="evenodd" clip-rule="evenodd" fill="#F1592A"></path></g><g id="Ellipse_533_copy_1_" class="st0"><path class="st2" d="M21.5 32c1.3-4.1 4.2-7.4 8.1-9.2L22.1 4.2C11.9 8.5 4.2 17.5 1.7 28.5L21.5 32z" id="Ellipse_533_copy" fill-rule="evenodd" clip-rule="evenodd" fill="#FF9F0D"></path></g><g id="to_program_support_1_" class="st0"><path class="st1" d="M79.3 43v3.4c0 .6.2 1 .5 1.2s.8.3 1.4.3h.6c.1 0 .1-.1.1-.2v-.9-.1h-.5c-.3 0-.5-.1-.6-.2-.1-.1-.2-.4-.2-.7V43s0-.1.1-.1H82V42v-.1h-1.3s-.1 0-.1-.1v-1.4-.1h-1.1-.1v1.5s0 .1-.1.1h-.7-.1v1h.1l.7.1c0-.1 0-.1 0 0zm8.4 4.5c.4-.3.8-.8.9-1.3.1-.4.2-.9.2-1.4 0-.5-.1-1-.2-1.4-.2-.6-.5-1-.9-1.3-.4-.3-1-.5-1.6-.5-.6 0-1.2.2-1.6.5-.5.3-.8.7-1 1.3-.1.4-.2.9-.2 1.4 0 .5.1.9.2 1.4.2.6.5 1 1 1.3.5.3 1 .5 1.6.5.6 0 1.1-.1 1.6-.5zm-2.9-1.6c-.1-.3-.1-.6-.1-1s0-.7.1-1c.1-.3.3-.5.5-.7.2-.2.5-.2.8-.2.3 0 .6.1.8.2.2.2.4.4.5.7.1.2.1.6.1 1s0 .7-.1 1c-.1.3-.3.5-.5.7-.2.2-.5.3-.8.3-.3 0-.6-.1-.8-.3-.3-.2-.4-.4-.5-.7zm12.7-3.8c-.4-.3-.9-.4-1.4-.4-.6 0-1 .2-1.4.6v-.4-.1H93.5h-.1V50.1H94.7v-2.7c.3.4.7.6 1.3.6.6 0 1.1-.1 1.5-.4.4-.3.7-.7.8-1.2.1-.4.2-.9.2-1.5s-.1-1.1-.2-1.5c-.2-.5-.4-1-.8-1.3zm-.7 4.2c-.2.3-.5.5-1 .5-.4 0-.7-.2-.9-.5-.2-.3-.3-.8-.3-1.4 0-.6.1-1.1.3-1.4.2-.4.5-.6.9-.6.5 0 .8.2 1 .6.2.3.3.8.3 1.4 0 .6-.1 1.1-.3 1.4zm3.5 1.6H101.5v-3.5c0-.4.1-.6.3-.9.2-.2.5-.3.8-.4h.2c.2 0 .3 0 .4.1.1 0 .2 0 .2-.1l.2-1.1c0-.1 0-.1-.1-.2-.2-.1-.4-.2-.7-.2-.6 0-1.1.3-1.4.8v-.6-.1H100.2h-.1V47.7c.1.2.2.2.2.2zm7.2.1c.6 0 1.1-.2 1.6-.5.4-.3.8-.8.9-1.3.1-.4.2-.9.2-1.4 0-.5-.1-1-.2-1.4-.2-.6-.5-1-.9-1.3-.4-.3-1-.5-1.6-.5-.6 0-1.2.2-1.6.5-.5.3-.8.7-1 1.3-.1.4-.2.9-.2 1.4 0 .5.1.9.2 1.4.2.6.5 1 1 1.3.4.4.9.5 1.6.5zm-1.3-4.2c.1-.3.3-.5.5-.7.2-.2.5-.2.8-.2.3 0 .6.1.8.2.2.2.4.4.5.7.1.2.1.6.1 1s0 .7-.1 1c-.1.3-.3.5-.5.7-.2.2-.5.3-.8.3-.3 0-.6-.1-.8-.3-.2-.2-.4-.4-.5-.7-.1-.3-.1-.6-.1-1 0-.3 0-.7.1-1zm10.6-2h-1.1-.1v.4c-.4-.4-.8-.6-1.5-.6-.5 0-1 .1-1.4.4-.4.3-.7.7-.8 1.2-.1.4-.2.9-.2 1.5s.1 1.1.2 1.5c.2.5.5.9.9 1.2.4.3.9.4 1.4.4.6 0 1.1-.2 1.4-.5v.1c0 .6-.1 1-.4 1.2-.3.2-.7.4-1.3.4h-.6c-.1 0-.2 0-.2.1v1c0 .1 0 .1.1.2h.7c.9 0 1.7-.2 2.3-.6.6-.4.9-1.1.9-2.1V42v-.1c-.2-.1-.2-.1-.3-.1zm-1.2 3.7c0 .1 0 .3-.1.4-.1.3-.2.5-.4.6-.2.2-.4.2-.8.2-.3 0-.6-.1-.8-.2-.2-.2-.4-.4-.4-.6-.1-.2-.1-.5-.1-1s0-.8.1-1.1c.1-.3.2-.5.4-.6.2-.2.4-.2.7-.2.3 0 .6.1.8.2.2.2.3.4.4.6 0 .1.1.3.1.4v.7c.1.2.1.5.1.6zm6-3.8c-.6 0-1.1.3-1.4.8v-.6-.1H119h-.1V47.8H120.2v-3.5c0-.4.1-.6.3-.9.2-.2.5-.3.8-.4h.2c.2 0 .3 0 .4.1.1 0 .2 0 .2-.1l.2-1.1c0-.1 0-.1-.1-.2-.1.1-.4 0-.6 0zm5.6.3c-.4-.2-.8-.3-1.3-.3-.7 0-1.3.2-1.7.5-.5.3-.7.7-.8 1.2v.1h.1l1.2.1c.1 0 .1 0 .2-.1 0-.2.2-.3.4-.5.2-.1.4-.2.7-.2.4 0 .6.1.8.3.2.2.3.4.3.7v.3s0 .1-.1.1h-1.3c-.8 0-1.4.2-1.8.5-.4.3-.7.8-.7 1.5 0 .6.2 1.1.6 1.4.4.3.9.5 1.5.5.7 0 1.3-.2 1.7-.6v.5H128.3v-4.1c0-.4-.1-.7-.3-1-.2-.5-.5-.8-.8-.9zm-.2 3.8c0 .3-.1.6-.4.8-.3.2-.6.3-1 .3-.3 0-.5-.1-.7-.2-.2-.1-.3-.3-.3-.6s.1-.5.4-.7c.2-.2.6-.2 1-.2h1s.1 0 .1.1v.5zm11.1-3.5c-.3-.4-.8-.6-1.4-.6-.4 0-.7.1-1 .2-.3.2-.6.4-.7.7h-.1c-.2-.3-.4-.5-.7-.7-.3-.2-.6-.2-1-.2-.3 0-.6.1-.9.2-.3.1-.5.3-.7.5V42v-.1H130.4h-.1V47.9H131.6v-4c0-.3.1-.5.3-.7.2-.2.4-.3.8-.3.3 0 .6.1.8.3.2.2.3.5.3.9V47.9H135.1V44.1c0-.4.1-.6.3-.9.2-.2.5-.3.8-.3.3 0 .6.1.8.3.2.2.3.5.3.9V47.9H138.6v-4.1c0-.7-.2-1.2-.5-1.5zM82.5 56.7c-.3-.1-.6-.3-1.1-.4l-.3-.1c-.4-.1-.8-.2-.9-.3-.2-.1-.3-.2-.3-.4s.1-.4.3-.5c.2-.1.5-.2.8-.2.4 0 .6.1.8.2.2.1.3.3.3.5v.1H83.3v-.1c0-.4-.1-.7-.3-.9-.2-.3-.5-.5-.9-.6-.4-.2-.8-.2-1.3-.2-.7 0-1.3.2-1.7.5-.4.3-.7.8-.7 1.3 0 .4.1.7.3.9.2.2.4.4.7.6.3.1.6.3 1 .4l.5.1c.4.1.6.2.8.3.2.1.2.2.2.4s-.1.4-.3.5c-.2.1-.5.2-.8.2-.3 0-.6-.1-.8-.2-.2-.1-.3-.3-.3-.5v-.1H78.5h-.1v.2c0 .3.1.6.3.9.2.3.5.5.9.6.4.1.8.2 1.3.2.7 0 1.3-.2 1.8-.5.4-.3.7-.8.7-1.3 0-.4-.1-.7-.3-.9-.1-.4-.3-.6-.6-.7zm7.4-2.9h-1.1-.1v3.7c0 .4-.1.7-.3.9-.2.2-.5.3-.9.3s-.6-.1-.8-.3c-.2-.2-.3-.5-.3-.9v-3.6-.1H85.2h-.1v4.1c0 .6.2 1.1.6 1.5.4.4.9.5 1.5.5.7 0 1.1-.2 1.5-.6v.5H90V53.9v-.1h-.1zm6.2.3c-.4-.3-.9-.4-1.4-.4-.6 0-1 .2-1.4.6v-.4-.1H92h-.1V62.1H93.2v-2.7c.3.4.8.6 1.4.6.6 0 1.1-.1 1.5-.4.4-.3.7-.7.8-1.2.1-.4.2-.9.2-1.5s-.1-1.1-.2-1.5c-.1-.5-.4-1-.8-1.3zm-.7 4.2c-.2.3-.5.5-1 .5-.4 0-.7-.2-.9-.5-.2-.3-.3-.8-.3-1.4 0-.6.1-1.1.3-1.4.2-.4.5-.6.9-.6.5 0 .8.2 1 .6.2.3.3.8.3 1.4.1.6 0 1.1-.3 1.4zm7.8-4.2c-.4-.3-.9-.4-1.4-.4-.6 0-1 .2-1.4.6v-.4-.1H99.2h-.1V62.1H100.4v-2.7c.3.4.8.6 1.4.6.6 0 1.1-.1 1.5-.4.4-.3.7-.7.8-1.2.1-.4.2-.9.2-1.5s-.1-1.1-.2-1.5c-.2-.5-.5-1-.9-1.3zm-.7 4.2c-.2.3-.5.5-1 .5-.4 0-.7-.2-.9-.5-.2-.3-.3-.8-.3-1.4 0-.6.1-1.1.3-1.4.2-.4.5-.6.9-.6.5 0 .8.2 1 .6.2.3.3.8.3 1.4 0 .6-.1 1.1-.3 1.4zm7.5-4.1c-.4-.3-1-.5-1.6-.5-.6 0-1.2.2-1.6.5-.5.3-.8.7-1 1.3-.1.4-.2.9-.2 1.4 0 .5.1.9.2 1.4.2.6.5 1 1 1.3.5.3 1 .5 1.6.5.6 0 1.1-.2 1.6-.5.4-.3.8-.8.9-1.3.1-.4.2-.9.2-1.4 0-.5-.1-1-.2-1.4-.1-.6-.4-1-.9-1.3zm-.3 3.7c-.1.3-.3.5-.5.7-.2.2-.5.3-.8.3-.3 0-.6-.1-.8-.3-.2-.2-.4-.4-.5-.7-.1-.3-.1-.6-.1-1s0-.7.1-1c.1-.3.3-.5.5-.7.2-.2.5-.2.8-.2.3 0 .6.1.8.2.2.2.4.4.5.7.1.2.1.6.1 1s0 .7-.1 1zm6-4.2c-.6 0-1.1.3-1.4.8v-.6-.1H113h-.1V59.8H114.2v-3.5c0-.4.1-.6.3-.9.2-.2.5-.3.8-.4h.2c.2 0 .3 0 .4.1.1 0 .2 0 .2-.1l.2-1.1c0-.1 0-.1-.1-.2 0 .1-.3 0-.5 0zm5.2.1h-1.2s-.1 0-.1-.1v-1.4-.1h-1.1-.1v1.5s0 .1-.1.1h-.7-.1v1H118.3s.1 0 .1.1v3.4c0 .6.2 1 .5 1.2s.8.3 1.4.3h.6c.1 0 .1-.1.1-.2v-.9-.1h-.5c-.3 0-.5-.1-.6-.2-.1-.1-.2-.4-.2-.7V55s0-.1.1-.1h1.3V54v-.1l-.2-.1z" id="to_program_support" fill-rule="evenodd" clip-rule="evenodd" fill="#F1592A"></path></g><g id="_x38_4_x25__1_" class="st0"><path class="st1" d="M91.7 20.2c1.1-.5 2-1.2 2.6-2.1s.9-1.8.9-2.9c0-1.6-.7-2.9-2-4s-3.1-1.6-5.4-1.6c-2.3 0-4.2.6-5.5 1.7-1.4 1.1-2 2.4-2 4 0 1 .3 2 .9 2.9.6.9 1.5 1.6 2.6 2.1-1.5.5-2.7 1.3-3.6 2.4-.9 1-1.3 2.2-1.3 3.5 0 1.9.8 3.4 2.5 4.6 1.7 1.2 3.8 1.8 6.4 1.8 2.6 0 4.7-.6 6.4-1.8 1.7-1.2 2.5-2.8 2.5-4.6 0-1.3-.5-2.4-1.4-3.5-.8-1.2-2.1-2-3.6-2.5zm-3.9-8.9c1.8 0 2.7 1.3 2.7 3.9 0 2.8-.9 4.3-2.7 4.3-.9 0-1.6-.4-2.1-1.1-.5-.7-.7-1.8-.7-3.2 0-2.6.9-3.9 2.8-3.9zm2.4 18.3c-.5.8-1.3 1.2-2.4 1.2-1.1 0-1.9-.4-2.4-1.2-.5-.8-.7-2-.7-3.6 0-3.4 1.1-5 3.2-5s3.2 1.7 3.2 5c-.1 1.6-.4 2.8-.9 3.6zm25.1-7.4c-.1.3-.2.4-.3.6s-.3.2-.5.2c-.1 0-.3.1-.6.1h-1.7V9.6h-2.6L98.3 23.2l.8 2.8h7.3v3.1c0 .4-.2.8-.6.9-.4.2-1.2.3-2.4.4v1.5c4-.1 7.8-.1 11.4 0v-1.5c-1-.1-1.7-.2-2.1-.4-.4-.2-.6-.5-.6-.9V26h2.4c.7 0 1.1-.3 1.2-.8l.9-3.7h-1l-.3.7zm-9 .9h-6.2l6.2-7.4v7.4zm32 1c-.8-.9-1.9-1.4-3.3-1.4-1.3 0-2.4.5-3.2 1.4-.8.9-1.2 2.1-1.2 3.4 0 1.3.4 2.5 1.2 3.4.8.9 1.9 1.4 3.2 1.4 1.4 0 2.4-.5 3.3-1.4.8-.9 1.2-2.1 1.2-3.4 0-1.3-.4-2.5-1.2-3.4zm-3.3 6.8c-1 0-1.5-1.1-1.5-3.4 0-2.2.5-3.3 1.5-3.3s1.5 1.1 1.5 3.3c0 2.2-.5 3.4-1.5 3.4zm.1-21.2l-14.5 22.4h2.9L138 9.7h-2.9zm-9 8.1c.8-.9 1.2-2.1 1.2-3.4 0-1.3-.4-2.5-1.2-3.4-.8-.9-1.9-1.4-3.3-1.4-1.3 0-2.4.5-3.2 1.4-.8.9-1.2 2.1-1.2 3.4 0 1.3.4 2.5 1.2 3.4.8.9 1.9 1.4 3.2 1.4 1.4.1 2.5-.4 3.3-1.4zm-4.7-3.4c0-2.2.5-3.3 1.5-3.3s1.5 1.1 1.5 3.3c0 2.2-.5 3.4-1.5 3.4s-1.5-1.1-1.5-3.4z" id="_x38_4_x25_" fill-rule="evenodd" clip-rule="evenodd" fill="#F1592A"></path></g></g></svg>