<svg xmlns="http://www.w3.org/2000/svg" id="Layer_1" x="0" y="0" viewBox="0 0 82 82" xml:space="preserve" width="82" height="82"><title>brand 02</title><g class="nc-icon-wrapper"><path class="st0" d="M41 4.2c19.1 0 34.9 14.7 36.6 33.3h-3.3c-5 0-6.3-.2-8.1-5.3C62.5 21.8 52.6 14.3 41 14.3s-21.5 7.4-25.1 17.8c-1.6 4.6-3 5.4-7.8 5.4H4.4C6.1 18.9 21.9 4.2 41 4.2m0 73.6c19.1 0 34.9-14.7 36.6-33.3h-3.3c-5 0-6.3.2-8.1 5.3C62.5 60.2 52.6 67.7 41 67.7s-21.5-7.4-25.1-17.8c-1.6-4.6-3-5.4-7.8-5.4H4.4C6.1 63.1 21.9 77.8 41 77.8z" fill-rule="evenodd" clip-rule="evenodd" fill="#1A2159"></path><path class="st0" d="M41 2.5c21.2 0 38.5 17.3 38.5 38.5S62.2 79.5 41 79.5 2.5 62.2 2.5 41 19.8 2.5 41 2.5M41 0c22.6 0 41 18.4 41 41S63.6 82 41 82 0 63.6 0 41 18.4 0 41 0z" fill-rule="evenodd" clip-rule="evenodd" fill="#1A2159"></path><path class="st0" d="M41 28.6c6.8 0 12.4 5.6 12.4 12.4 0 6.8-5.6 12.4-12.4 12.4-6.9 0-12.4-5.6-12.4-12.4 0-6.8 5.6-12.4 12.4-12.4" fill-rule="evenodd" clip-rule="evenodd" fill="#1A2159"></path><path class="st1" d="M41 57.4l-.8 2.4h-2.5l2 1.4-.7 2.4 2-1.5 2 1.5-.7-2.4 2-1.4h-2.5" fill-rule="evenodd" clip-rule="evenodd" fill="#F1A200"></path><path class="st2" d="M41 39.6c-.8 0-1.4.6-1.4 1.4 0 .8.6 1.4 1.4 1.4.8 0 1.4-.6 1.4-1.4 0-.8-.6-1.4-1.4-1.4m3.5.7c.3.2.5.4.7.6-.2.2-.5.4-.7.6v-.6-.6zm-5.6-3l.9.3-.6.3c-.2.1-.4.2-.5.3 0-.3.1-.6.2-.9zm-1.4 4.3c-.3-.2-.5-.4-.7-.6.2-.2.5-.4.7-.6v1.2zm3.5 2.2c-.4-.2-.8-.4-1.2-.7-.4-.2-.8-.5-1.2-.7V41c0-.5 0-1 .1-1.4.4-.3.8-.5 1.2-.7.4-.2.8-.5 1.3-.7.4.2.8.4 1.2.7.4.2.8.5 1.2.7 0 .5.1.9.1 1.4v1.4c-.4.3-.8.5-1.2.8-.7.2-1.1.4-1.5.6zm2.1.9l-.9-.3c.2-.1.3-.2.5-.3.2-.1.4-.2.5-.3.1.2 0 .6-.1.9zm-2.1.2c.6.3 1.3.5 1.9.7-.1.2-.1.5-.2.7-.5 1.2-1.1 2-1.6 2-.6 0-1.2-.8-1.6-2-.1-.2-.2-.4-.2-.7.4-.1 1.1-.4 1.7-.7zm-2.3-1.2c.2.1.4.2.5.3.2.1.4.2.5.3l-.9.3c0-.2-.1-.6-.1-.9zm-2.7-2c.5.4 1 .8 1.6 1.3.1.7.2 1.4.3 2-.2.1-.5.1-.7.1-1.3.2-2.2.1-2.5-.4-.3-.5.1-1.4.9-2.4.1-.2.2-.4.4-.6zm5-4.7c-.6-.3-1.3-.5-1.9-.7.1-.2.1-.4.2-.6.5-1.2 1.1-2 1.6-2 .6 0 1.2.8 1.6 2 .1.2.2.4.2.6-.4.2-1.1.4-1.7.7zm2.3 1.2c-.2-.1-.3-.2-.5-.3-.2-.1-.4-.2-.5-.3l.9-.3c0 .3 0 .6.1.9zm2.7 2c-.5-.4-1-.9-1.6-1.3-.1-.7-.2-1.4-.3-2 .2-.1.5-.1.7-.1 1.3-.2 2.2-.1 2.5.4.3.5-.1 1.4-.9 2.4-.1.3-.2.5-.4.6zm-1.9 4.7c.1-.6.2-1.3.3-2 .6-.4 1.1-.8 1.6-1.3.2.2.3.4.5.5.8 1 1.2 1.9.9 2.4-.3.5-1.2.6-2.5.4-.3.1-.5.1-.8 0zM37.9 37c-.1.6-.2 1.3-.3 2-.6.4-1.1.8-1.6 1.3-.2-.2-.3-.4-.5-.5-.8-1-1.2-1.9-.9-2.4.3-.5 1.2-.6 2.5-.4.3-.1.5-.1.8 0zm3.1-4.4c-1.1 0-2 1-2.6 2.6-.1.2-.2.5-.2.7-.3-.1-.5-.1-.8-.2-1.7-.3-3 0-3.6.9-.5.9-.1 2.2 1 3.6.2.2.3.4.5.6-.2.2-.4.4-.5.6-1.1 1.4-1.5 2.7-1 3.6.5.9 1.9 1.2 3.6.9.3 0 .5-.1.8-.2.1.3.2.5.3.8.6 1.6 1.5 2.6 2.6 2.6s2-1 2.6-2.6c.1-.2.2-.5.3-.8.3.1.5.1.8.2 1.7.3 3 0 3.6-.9.5-.9.1-2.2-1-3.6-.2-.2-.3-.4-.5-.6.2-.2.4-.4.5-.6 1.1-1.4 1.5-2.7 1-3.6-.5-.9-1.9-1.2-3.6-.9-.3 0-.5.1-.8.2-.1-.3-.2-.5-.3-.7-.7-1.5-1.6-2.6-2.7-2.6z" style="" fill="#FFFFFF"></path><path class="st1" d="M37.8 17.1h6.4l.3 3.9c1.2.2 2.4.5 3.5.9l2.2-3.2 5.6 3.2-1.7 3.5c.9.8 1.8 1.6 2.6 2.6l3.5-1.7 3.2 5.6-3.3 2.1c.4 1.2.7 2.3.9 3.5l3.8.3v2.3l-.6.2c-2.2.6-2.9 2.3-3.9 4.5-.8 1.8-1.8 4.2-4.2 6.5.3-1.4.4-2.9.1-4.6l-.2-2.4c.2-1.1.4-2.1.4-3.3 0-8.5-6.9-15.3-15.3-15.3-8.5 0-15.3 6.9-15.3 15.3 0 1.1.1 2.2.4 3.3l-.4 2.4c-.3 1.6-.1 3.2.1 4.6-2.4-2.3-3.4-4.6-4.2-6.5-1-2.3-1.7-3.9-3.9-4.5l-.6-.2v-2.3l3.9-.3c.2-1.2.5-2.4.9-3.5l-3.2-2.2 3.2-5.6 3.5 1.7c.8-.9 1.6-1.8 2.6-2.6l-1.7-3.5 5.6-3.2 2.2 3.2c1.2-.4 2.3-.7 3.5-.9" fill-rule="evenodd" clip-rule="evenodd" fill="#F1A200"></path><path class="st0" d="M43.8 64.5c11.4-1.3 20.4-11.1 20.9-22.9-3.7 1-2.1 7.7-10.7 13.2.3-1.5 1.7-4.6 1.1-7.8-1.4 2-2.7 4.1-4.6 5.8-3.4 3-4.7 3.6-5.1 8-.1 1.2-.4 2.6-1.6 3.7m-5.6 0c-11.4-1.3-20.4-11.1-20.9-22.9 3.7 1 2.1 7.7 10.7 13.2-.3-1.5-1.7-4.6-1.1-7.8 1.4 2 2.7 4.1 4.6 5.8 3.4 3 4.7 3.6 5.1 8 .1 1.2.4 2.6 1.6 3.7z" fill-rule="evenodd" clip-rule="evenodd" fill="#1A2159"></path><path class="st1" d="M9.1 42.8c-.2 0-.4 0-.6-.1-.2-.1-.3-.2-.5-.4-.1-.2-.2-.3-.3-.6-.1-.2-.1-.4-.1-.7 0-.2 0-.5.1-.7l.3-.6c.1-.2.3-.3.5-.4.2-.1.4-.1.6-.1.2 0 .4 0 .6.1.2.1.3.2.5.4.1.2.2.3.3.6.1.2.1.4.1.7 0 .2 0 .5-.1.7l-.3.6c-.1.2-.3.3-.5.4-.2 0-.4.1-.6.1m0-.7c.1 0 .2 0 .3-.1.1-.1.2-.1.2-.2.1-.1.1-.2.1-.3 0-.1.1-.3.1-.4 0-.2 0-.3-.1-.4 0-.1-.1-.2-.2-.3-.1-.1-.1-.2-.2-.2-.1-.1-.2-.1-.3-.1-.1 0-.2 0-.3.1-.1.1-.2.1-.2.2-.1.1-.1.2-.1.3 0 .1-.1.3-.1.4 0 .2 0 .3.1.4 0 .1.1.2.2.3.1.1.1.2.2.2.1.1.2.1.3.1zm-4.6 0l1.1-.9c.1-.1.2-.2.3-.2l.2-.2c0-.1.1-.1.1-.2v-.2c0-.1 0-.3-.1-.3-.1-.1-.2-.1-.3-.1-.1 0-.2 0-.4.1l-.3.3-.5-.4.3-.3c.1-.1.2-.2.3-.2.1-.1.2-.1.3-.1h.4c.2 0 .3 0 .5.1.1.1.3.1.4.2.1.1.2.2.2.3v.3c0 .1 0 .3-.1.4 0 .1-.1.2-.2.3l-.3.3c-.1.1-.2.2-.4.3l-.6.4h1.5v.6H4.5v-.5z" fill-rule="evenodd" clip-rule="evenodd" fill="#F1A200"></path><path class="st1" d="M75.7 42.8c-.2 0-.5 0-.6-.1-.2-.1-.3-.2-.5-.3l.4-.6c.1.1.2.2.4.2.1 0 .2.1.4.1s.4-.1.5-.2c.1-.1.2-.3.2-.6-.1.1-.2.1-.3.2-.1 0-.2.1-.4.1s-.4 0-.5-.1c-.1 0-.3-.1-.4-.2-.1-.1-.2-.2-.2-.3-.1-.1-.1-.3-.1-.5s0-.3.1-.5c.1-.1.2-.3.3-.4.1-.1.2-.2.4-.2.2-.1.3-.1.5-.1h.3c.1 0 .2 0 .3.1.1 0 .2.1.2.1.1 0 .1.1.2.2l.2.2c0 .1.1.2.1.3 0 .1.1.2.1.4v.4c0 .3 0 .5-.1.8l-.3.6c-.1.2-.3.3-.5.4-.3-.1-.5 0-.7 0m.1-1.9c.2 0 .3 0 .4-.1.1-.1.2-.2.2-.4s-.1-.3-.2-.4c-.1-.1-.3-.1-.4-.1-.2 0-.3 0-.4.1-.1.1-.2.2-.2.4s.1.3.2.4c.1.1.2.1.4.1zM73 40l-.6.1-.2-.6 1-.3h.5v3.4H73V40z" fill-rule="evenodd" clip-rule="evenodd" fill="#F1A200"></path><path class="st3" d="M72.6 27.7l1.3 3.7-1 .3-.9-2.6-1 .3.8 2.3-1 .3-.8-2.2-1 .4.9 2.7-1 .3-1.3-3.8m1-8.7l.7 1-1.1 2.4 2.6-.1.7 1-4.4 3-.6-1 2.9-1.9h-2.7l1.1-2.4-2.9 1.9-.6-.9 4.3-3zm-3.5-4l.7.8-2.2 5.3-.8-.9.5-1.2-1.5-1.6-1.2.5-.8-.8 5.3-2.1zm-1.4 3l.7-1.7-1.7.7 1 1zm-5.9-8.6l.9.6.4 4 1.7-2.7 1 .6-2.8 4.5-.8-.5-.4-4.2-1.8 2.8-1-.6 2.8-4.5zm-8 .1l-.9-3.6 1.3.4.5 2.4 1.9-1.6 1.2.4-2.9 2.4-.6 2-1.1-.4.6-2zM44.5 8l-1.6-.2.1-1 4.3.5-.1 1.1-1.6-.2-.5 4.1-1.1-.1.5-4.2zM40 6.8h1.2l.1 5.2h-1.2L40 6.8zm-3.1 5.6c-.4 0-.8 0-1.2-.1-.4-.1-.8-.3-1.1-.5l.6-.9c.3.2.5.3.8.4.3.1.5.1.8.1.2 0 .4-.1.5-.2.1-.1.2-.2.2-.4 0-.1 0-.1-.1-.2 0-.1-.1-.1-.2-.1s-.2-.1-.3-.1c-.1 0-.3-.1-.6-.1s-.5-.1-.7-.1c-.2-.1-.4-.1-.6-.2-.2-.1-.3-.2-.4-.4-.1-.2-.2-.4-.2-.6 0-.2 0-.5.1-.7.1-.2.2-.4.3-.5.1-.2.3-.3.5-.4.2-.1.5-.2.7-.2h1.1c.3.1.6.2.9.4l-.5.9c-.3-.1-.5-.2-.7-.3-.2-.1-.5-.1-.7-.1-.2 0-.4.1-.5.2-.1.1-.1.2-.1.3 0 .1 0 .2.1.2 0 .1.1.1.2.1s.2.1.4.1.3.1.6.1.5.1.7.1c.2.1.4.1.6.2.2.1.3.2.4.4.1.2.2.3.2.6s0 .5-.1.7l-.3.6c-.2.2-.3.3-.6.4-.3.2-.5.3-.8.3zm-8.8-3.1l2.3-.7c.6-.2 1.2-.2 1.6 0 .4.2.6.5.8 1 .1.4.1.8 0 1.1-.1.3-.3.6-.6.8l1.8 1.4-1.3.4-1.6-1.3-.8.3.5 1.6-1.1.4-1.6-5zm3 1.7c.3-.1.5-.2.6-.4.1-.2.1-.4.1-.6-.1-.2-.2-.4-.4-.5-.2-.1-.4-.1-.7 0l-1.1.4.5 1.4 1-.3zm-8.6 1.1l3.5-1.9.5.9-2.5 1.3.5.9 2.2-1.2.5.9-2.2 1.2.5 1 2.5-1.4.5.9-3.5 1.9-2.5-4.5zm-5.7 4.6l1-.8 3.4 1.9-1.3-3.7 1-.8 1.8 5.4-.8.7-5.1-2.7zm-1.9 2.2l.8-.9 4 3.4-.8.9-4-3.4zm-4 5.7l.6-.9 4-.3-2.7-1.8.6-1 4.4 2.9-.5.8-4.2.3 2.8 1.8-.6 1-4.4-2.8zm3 6.3c-.3.7-.7 1.1-1.2 1.3-.5.2-1.1.2-1.8-.1L8.1 31l.4-1.1 2.8 1.1c.4.2.7.2 1 .1.3-.1.5-.3.6-.6.1-.3.1-.6 0-.9-.1-.3-.4-.5-.8-.6l-2.8-1.1.4-1.1 2.7 1.1c.4.1.7.3.9.5.2.2.4.4.5.7.1.3.2.5.1.8.2.3.1.7 0 1z" fill-rule="evenodd" clip-rule="evenodd" fill="#FFFFFF"></path><path class="st3" d="M68.1 52l1.2-3.6.9.3-.8 2.5 1 .3.7-2.2.9.3-.7 2.2 1 .3.8-2.6.9.3-1.2 3.6m-6.9 3.1l1-2c.3-.6.7-.9 1.1-1.1.4-.1.8-.1 1.2.1.4.2.6.4.7.7.1.3.2.6.1.9l2.1-.3-.6 1.1-1.9.2-.4.8 1.4.7-.5 1-4.2-2.1zm3.1-.9c.1-.2.2-.5.1-.6 0-.2-.2-.3-.4-.4-.2-.1-.4-.1-.6 0-.2.1-.3.2-.4.5l-.5 1 1.3.6.5-1.1zM63.2 60l2.3-3 .8.6-1.6 2.1.8.6 1.4-1.8.8.6-1.5 1.9.8.6 1.7-2.1.8.6-2.3 3-4-3.1zm-3.9 3.8l.8-.8 1.4 1.4L63 63l-1.4-1.4.8-.8 3.5 3.6-.9.8-1.4-1.4-1.5 1.4 1.4 1.4-.8.8-3.4-3.6zm-2.2 7.5c-.3.2-.7.3-1.1.4-.4.1-.8 0-1.2-.1l.2-1c.3.1.6.1.8.1.3 0 .5-.1.8-.2.2-.1.3-.2.4-.4.1-.1.1-.3 0-.4 0-.1-.1-.1-.1-.1s-.1-.1-.2-.1h-.3c-.1 0-.3.1-.5.1-.3.1-.5.1-.7.1h-.6c-.2 0-.3-.1-.5-.2-.1-.1-.3-.3-.4-.5-.1-.2-.2-.4-.2-.6 0-.2 0-.4.1-.6.1-.2.2-.4.3-.5.2-.2.3-.3.6-.4.3-.2.6-.3 1-.3h1l-.1 1h-.7c-.2 0-.4.1-.6.2-.2.1-.3.2-.4.3-.1.1-.1.2 0 .3 0 .1.1.1.1.2.1 0 .1.1.2.1h.4c.1 0 .3-.1.5-.1.3-.1.5-.1.7-.1h.6c.2 0 .3.1.5.2l.4.4c.1.2.2.4.2.6 0 .2 0 .4-.1.6-.1.2-.2.4-.4.5-.3.2-.5.3-.7.5zm-8.3-2.1l3.6-1.2.3.9-2.5.9.3 1 2.2-.8.3.9-2.2.8.3 1 2.6-.9.3.9-3.6 1.2-1.6-4.7zm-2.6 5.7c-.4.1-.7.1-1.1 0-.3-.1-.7-.2-.9-.4-.3-.2-.5-.4-.7-.7-.2-.3-.3-.6-.4-.9-.1-.3-.1-.7 0-1 .1-.3.2-.6.4-.9.2-.3.4-.5.7-.7.3-.2.6-.3 1-.4.4-.1.7-.1 1.1 0 .3.1.7.2.9.4.3.2.5.4.7.7.2.3.3.6.4.9.1.3.1.7 0 1-.1.3-.2.6-.4.9-.2.3-.4.5-.7.7-.2.2-.6.3-1 .4zm-.1-1c.2 0 .4-.1.6-.2.2-.1.3-.3.4-.4.1-.2.2-.3.2-.5v-.6c0-.2-.1-.4-.2-.6-.1-.2-.2-.3-.4-.4-.2-.1-.3-.2-.5-.2h-.6c-.2 0-.4.1-.6.2-.2.1-.3.3-.4.4-.1.2-.2.3-.2.5v.6c0 .2.1.4.2.6.1.2.2.3.4.4.2.1.3.2.5.2h.6zM40 75.3c-.4 0-.7-.1-1.1-.2-.3-.1-.6-.3-.8-.6-.2-.2-.4-.5-.5-.8-.1-.3-.2-.7-.2-1 0-.4.1-.7.2-1 .1-.3.3-.6.6-.8.2-.2.5-.4.8-.5.3-.1.7-.2 1.1-.2.2 0 .4 0 .6.1.2 0 .3.1.5.1.2.1.3.1.4.2.1.1.3.2.4.3l-.7.8c-.1-.1-.2-.2-.3-.2-.1-.1-.2-.1-.3-.2-.1 0-.2-.1-.3-.1H40c-.2 0-.4 0-.6.1-.2.1-.3.2-.5.3-.1.1-.2.3-.3.5-.1.2-.1.4-.1.6 0 .2 0 .4.1.6.1.2.2.4.3.5.1.1.3.3.5.3.2.1.4.1.6.1.4 0 .8-.1 1-.3v-.7h-1.1v-.9l2.2.1-.1 2.2c-.3.2-.6.4-.9.5-.3.1-.7.2-1.1.2zm-9.5-7l3.6 1.2-.3.9-2.5-.9-.3 1 2.2.8-.3.9-2.2-.8-.3 1 2.6.9-.3.9-3.8-1.2 1.6-4.7zm-4.9-2.5l.9.5.6 3.8 1.4-2.7 1 .5-2.3 4.4-.8-.4-.6-3.9-1.5 2.8-1-.5 2.3-4.5zm-1.8-1.3l.9.6-2.9 4-.9-.6 2.9-4zm-3.6-3l.8.7-2.6 3 1.9 1.6-.7.8-2.7-2.3 3.3-3.8zm-5.9 1c-.2-.3-.4-.6-.5-1-.1-.3-.1-.7-.1-1 0-.3.1-.6.3-.9.2-.3.4-.6.7-.8.3-.2.6-.4.9-.5.3-.1.7-.1 1-.1.3 0 .6.1.9.3.3.2.6.4.8.7.1.2.3.3.3.5.1.2.2.3.2.5.1.2.1.3.1.5v.5h-1.1v-.4c0-.1 0-.2-.1-.3 0-.1-.1-.2-.1-.3-.1-.1-.1-.2-.2-.3-.1-.2-.3-.3-.4-.4-.2-.1-.4-.1-.5-.2-.2 0-.4 0-.6.1-.2.1-.4.2-.5.3-.2.1-.3.3-.4.5-.1.2-.2.4-.2.6v.6c.1.2.1.4.3.6.3.3.5.5.9.6l.6-.4-.7-.9.7-.6 1.3 1.7-1.7 1.3c-.3-.1-.7-.2-1-.4-.3-.2-.6-.5-.9-.8zm.8-8.2l.5.9-3.6 4.2-.5-1 .8-.9-1-1.9-1.2.1-.5-1 5.5-.4zM13 56.7l1.1-1.3-1.7.1.6 1.2zm-.8-6.7l-.5-1.4 1-.3 1.3 3.9-1 .3-.5-1.5-3.8 1.2-.3-1 3.8-1.2z" fill-rule="evenodd" clip-rule="evenodd" fill="#FFFFFF"></path></g></svg>