<svg xmlns="http://www.w3.org/2000/svg" id="Layer_2" x="0" y="0" viewBox="0 0 121.4 70" xml:space="preserve" width="121.4" height="70"><title>brand 05</title><g class="nc-icon-wrapper"><path class="st0" d="M19.2 54.1H0l5-8.6-5-9.2h19.2z" style="" fill="#424242"></path><path class="st0" d="M116.4 45.5l5 8.6h-19.1V36.3h19.1z" style="" fill="#424242"></path><path class="st0" d="M107.4 19.8v30.4c0 1.5-.5 2.8-1.3 4-.8 1.1-1.9 2-3.3 2.4L67.5 68.9c-2.2.7-4.5 1.1-6.9 1.1-2.3 0-4.6-.4-6.8-1.1L18.5 56.6c-1.3-.5-2.5-1.3-3.3-2.4-.8-1.1-1.3-2.5-1.3-4V19.8c0-2.9 1.8-5.4 4.5-6.4L53.8 1.2C56 .4 58.3 0 60.6 0s4.6.4 6.8 1.2l35.4 12.3c2.7.9 4.6 3.4 4.6 6.3z" style="" fill="#424242"></path><path class="st1" d="M104.1 19.8v30.4c0 1.5-.9 2.8-2.3 3.3L66.4 65.8c-1.8.6-3.8 1-5.7 1s-3.9-.3-5.7-1L19.5 53.5c-1.4-.5-2.3-1.8-2.3-3.3V19.8c0-1.5.9-2.8 2.3-3.3L54.9 4.2c1.8-.6 3.8-1 5.7-1s3.9.3 5.7 1l35.4 12.3c1.4.5 2.4 1.8 2.4 3.3z" style="" fill="#FFFFFF"></path><path class="st2" d="M102.1 15.6L66.7 3.4c-1.9-.7-4-1-6.1-1-2 0-4.1.3-6 1L19.2 15.6c-1.8.6-3 2.3-3 4.2v30.4c0 1.7 1 3.2 2.5 4 .2.1.3.2.5.2l35.4 12.3c1.9.7 4 1 6 1 2.1 0 4.1-.3 6.1-1l35.4-12.3c.2-.1.3-.1.5-.2 1.5-.7 2.5-2.3 2.5-4V19.8c-.1-1.9-1.3-3.6-3-4.2zm1 34.6c0 .8-.4 1.5-.9 2-.2.2-.5.3-.8.4L66.1 64.9c-1.8.6-3.6.9-5.4.9-1.8 0-3.7-.3-5.4-.9L19.9 52.6c-.3-.1-.5-.2-.8-.4-.6-.5-.9-1.2-.9-2V19.8c0-1.1.7-2 1.7-2.4L55.2 5.1c1.8-.6 3.6-.9 5.4-.9 1.9 0 3.7.3 5.4.9l35.4 12.3c1 .4 1.7 1.3 1.7 2.4v30.4z" style="" fill="#AD9574"></path><path class="st0" d="M10.2 27.7h101v19.9h-101z" style="" fill="#424242"></path><path class="st1" d="M110.5 28.5v18.4H10.9V28.5h99.6M112 27H9.5v21.4H112V27z" style="" fill="#FFFFFF"></path><g><path class="st0" d="M68.4 25.1c0 .4-.3.8-.8.8H53.7c-.4 0-.8-.3-.8-.8 0-.4.3-.8.8-.8h13.9c.4 0 .8.4.8.8z" style="" fill="#424242"></path><path class="st0" d="M56.6 13.7c0 .4-.4.8-.8.8s-.8-.4-.8-.8.4-.8.8-.8.8.4.8.8z" style="" fill="#424242"></path><path class="st0" d="M50 12.9c0 .7-.6 1.3-1.3 1.3s-1.3-.6-1.3-1.3.6-1.3 1.3-1.3 1.3.6 1.3 1.3z" style="" fill="#424242"></path><path class="st0" d="M65.5 18.7l-.5-3.4-1.9 2.3-2.5-6.3-2.5 6.3-1.9-2.3-.5 3.4-6.1-3.8 3.2 8.4h15.4l3.2-8.4-5.9 3.8zm-4.9 3.7l-2-2.6 2-2.6 2 2.6-2 2.6z" style="" fill="#424242"></path><path class="st0" d="M66.3 13.7c0 .4-.4.8-.8.8s-.8-.4-.8-.8.4-.8.8-.8c.5 0 .8.4.8.8z" style="" fill="#424242"></path><path class="st0" d="M73.9 12.9c0 .7-.6 1.3-1.3 1.3-.7 0-1.3-.6-1.3-1.3 0-.7.6-1.3 1.3-1.3.7 0 1.3.6 1.3 1.3z" style="" fill="#424242"></path><path class="st0" d="M62.1 8.8c0 .8-.7 1.5-1.5 1.5s-1.5-.7-1.5-1.5.7-1.5 1.5-1.5c.9 0 1.5.7 1.5 1.5z" style="" fill="#424242"></path></g><g><path class="st1" d="M29.1 31.8l-.9 4.2h.1c.4 0 .7-.1 1.1-.3.3-.2.6-.4.9-.7.2-.3.4-.6.6-1 .1-.4.2-.7.2-1.1 0-.3 0-.5-.1-.8-.1-.2-.2-.5-.4-.7-.2-.2-.5-.3-.8-.5-.3-.1-.7-.2-1.2-.2-.6 0-1.1.1-1.7.3-.6.2-1.1.5-1.5.9-.5.4-.8.9-1.1 1.4-.3.6-.4 1.3-.4 2v.6c0 .1.1.3.1.4 0 .1.1.2.1.2 0 .1.1.1.1.1-.6 0-1.1-.1-1.5-.4-.5-.1-.7-.5-.7-1.2s.2-1.3.6-1.9c.4-.6.9-1.1 1.5-1.6s1.4-.8 2.2-1.1c.8-.3 1.7-.4 2.6-.4.7 0 1.3.1 1.8.3s.9.4 1.3.7c.3.3.6.6.7 1 .2.4.2.7.2 1.1 0 .6-.2 1.1-.5 1.7-.3.5-.8 1-1.4 1.4.4.1.8.2 1 .4.3.2.5.4.7.7.2.3.3.6.4.9.1.3.1.7.1 1 0 .5-.1 1-.2 1.6-.1.6-.4 1.2-.7 1.8-.3.6-.8 1.1-1.3 1.5-.5.4-1.2.6-2 .6-.2 0-.4 0-.6-.1-.2 0-.4-.1-.6-.2-.2-.1-.3-.2-.5-.4-.1-.2-.2-.4-.2-.7 0-.3.1-.7.2-1.1.2.3.5.4.7.5.2.1.4.2.6.2.3 0 .6-.1.9-.3.2-.2.4-.5.6-.8.2-.3.3-.7.3-1.1.1-.4.1-.8.1-1.2 0-.3 0-.6-.1-.9-.1-.3-.2-.5-.3-.8-.1-.2-.3-.4-.6-.5-.2-.1-.5-.2-.9-.2h-.9l-1.6 7.3h-2.8l2.6-12.1 3.2-.5z" style="" fill="#FFFFFF"></path><path class="st1" d="M36.8 41.2c0 .6.1 1.1.3 1.3.2.2.6.3 1 .3s.7-.1 1-.2c.3-.1.6-.2.9-.4.3-.2.5-.4.8-.6.2-.2.5-.5.7-.8h.6c-.3.4-.6.9-.9 1.3-.3.4-.7.8-1.2 1.1-.4.3-.9.6-1.4.8-.5.2-1.1.3-1.7.3-.9 0-1.6-.2-2.2-.7-.5-.5-.8-1.2-.8-2.3 0-.4 0-.8.1-1.3s.2-1 .4-1.4l.6-1.5c.3-.5.6-.9 1-1.3s.8-.7 1.3-.9c.5-.2 1.1-.3 1.7-.3.4 0 .8.1 1 .2.3.1.5.2.6.4.2.2.3.4.3.6.1.2.1.4.1.7 0 .5-.1 1-.4 1.5-.2.5-.6.9-1 1.2-.4.3-.9.6-1.4.8-.5.2-1.1.3-1.6.4v.4c.2.1.2.3.2.4zm2.9-4.7c0-.2 0-.4-.1-.6-.1-.1-.2-.2-.4-.2s-.5.1-.7.3c-.2.2-.4.5-.6.9-.2.4-.4.8-.5 1.2-.2.5-.3.9-.4 1.4.4 0 .7-.1 1.1-.3.3-.2.6-.4.9-.7.3-.3.5-.6.6-1 0-.3.1-.7.1-1z" style="" fill="#FFFFFF"></path><path class="st1" d="M49.6 40.9c-.5.6-1 1-1.5 1.4-.5.4-1 .7-1.4 1-.2.2-.4.4-.7.5-.2.1-.5.3-.8.4-.3.1-.5.2-.8.2-.3 0-.5.1-.8.1-.5 0-.9-.1-1.2-.2-.3-.1-.6-.3-.9-.6-.2-.2-.4-.5-.5-.8-.1-.3-.2-.6-.2-.9 0-.4.1-.8.3-1.1.2-.3.4-.5.7-.6.5-1 1-1.9 1.4-2.8.4-.9.7-1.9 1-2.8l2.8-.4c.1 1.2.1 2.2.2 3 .1.8.1 1.4.1 1.9s.1.9.1 1.2v.9c0 .3 0 .5-.1.7.5-.3 1-.6 1.4-1h.9zm-6.3 0c0 .2-.1.4-.2.6-.2.2-.4.3-.6.3h-.3c-.1 0-.2-.1-.2-.2 0 .4.1.8.3 1 .2.2.5.3.9.3.2 0 .4 0 .6-.1.2-.1.4-.2.5-.3.2-.1.3-.3.4-.6.1-.2.1-.5.1-.8v-.7c0-.2 0-.5-.1-.8 0-.3-.1-.7-.1-1.2s-.1-1.1-.1-1.8c-.2.6-.4 1.2-.7 1.8-.3.6-.5 1.2-.9 1.8.1.1.2.1.3.3 0 .1.1.2.1.4z" style="" fill="#FFFFFF"></path><path class="st1" d="M51.5 41.2c-.1.3-.1.5-.1.7 0 .2 0 .4.1.5.1.1.3.2.5.2h.5c-.1.4-.3.7-.5 1-.2.2-.3.4-.5.6-.2.1-.4.2-.5.3-.2 0-.3.1-.5.1-.7 0-1.2-.2-1.5-.6-.3-.4-.4-.9-.4-1.5 0-.3 0-.7.1-1l1.2-5.7h-.6l.2-.8h.6l.6-2.6 2.8-.4c-.1.3-.1.5-.2.9-.1.3-.1.6-.2 1s-.2.8-.2 1.2H54l-.2.8h-1.1l-1.2 5.3z" style="" fill="#FFFFFF"></path><path class="st1" d="M67.7 32.3c0 .6-.1 1-.4 1.4-.3.4-.7.5-1.1.5-.4 0-.6-.1-.9-.4.3-.2.5-.4.6-.7.2-.3.2-.6.2-.9 0-.3-.1-.6-.3-.9-.2-.3-.6-.4-1.1-.4-.5 0-1 .1-1.3.4-.3.3-.5.7-.5 1.3 0 .5.1.9.3 1.2.2.3.5.7.8 1 .3.3.7.6 1 .9.4.3.7.7 1 1 .3.4.6.8.8 1.3.2.5.3 1.1.3 1.8 0 .8-.1 1.5-.4 2.1-.3.6-.7 1.1-1.2 1.5-.5.4-1.1.7-1.7.9-.6.2-1.3.3-2 .3-.5 0-1.1-.1-1.6-.2s-.9-.3-1.3-.6-.7-.6-.9-1c-.2-.4-.3-.9-.3-1.5 0-.5.1-1 .2-1.4.2-.4.4-.7.6-1 .3-.3.6-.5.9-.6.3-.1.7-.2 1-.2.2 0 .3 0 .5.1.2 0 .4.1.5.2.2.1.3.2.4.4.1.2.2.4.2.6-.3 0-.5 0-.8.1-.3.1-.5.2-.7.3-.2.1-.4.3-.5.6.1.4 0 .6 0 1 0 .5.2.9.5 1.2.3.3.8.5 1.4.5.6 0 1.2-.2 1.6-.6.4-.4.6-1 .6-1.8 0-.5-.1-1-.3-1.5-.2-.4-.4-.8-.7-1.2-.3-.4-.6-.7-.9-1.1-.3-.3-.7-.7-.9-1-.3-.3-.5-.7-.7-1.1-.2-.4-.3-.8-.3-1.3s.1-1 .3-1.4c.2-.4.5-.8.9-1.1.4-.3.9-.5 1.4-.7.5-.2 1.1-.3 1.7-.3.2 0 .5 0 .9.1.3 0 .7.1 1 .3.3.2.6.4.8.7.3.2.4.6.4 1.2z" style="" fill="#FFFFFF"></path><path class="st1" d="M70.8 41.2c0 .6.1 1.1.3 1.3.2.2.6.3 1 .3s.7-.1 1-.2c.3-.1.6-.2.9-.4.3-.2.5-.4.8-.6.2-.2.5-.5.7-.8h.6c-.3.4-.6.9-.9 1.3-.3.4-.7.8-1.2 1.1-.4.3-.9.6-1.4.8-.5.2-1.1.3-1.7.3-.9 0-1.6-.2-2.2-.7-.5-.5-.8-1.2-.8-2.3 0-.4 0-.8.1-1.3s.2-1 .4-1.4l.6-1.5c.3-.5.6-.9 1-1.3s.8-.7 1.3-.9c.5-.2 1.1-.3 1.7-.3.4 0 .8.1 1 .2.3.1.5.2.6.4.2.2.3.4.3.6.1.2.1.4.1.7 0 .5-.1 1-.4 1.5-.2.5-.6.9-1 1.2-.4.3-.9.6-1.4.8-.5.2-1.1.3-1.6.4v.4c.2.1.2.3.2.4zm2.9-4.7c0-.2 0-.4-.1-.6-.1-.1-.2-.2-.4-.2s-.5.1-.7.3c-.2.2-.4.5-.6.9-.2.4-.4.8-.5 1.2-.2.5-.3.9-.4 1.4.4 0 .7-.1 1.1-.3.3-.2.6-.4.9-.7.3-.3.5-.6.6-1 0-.3.1-.7.1-1z" style="" fill="#FFFFFF"></path><path class="st1" d="M80.4 30.9l-2.2 10.3c-.1.2-.1.4-.1.6 0 .3.1.5.2.6.1.1.3.2.6.2.4 0 .7-.2 1-.5.3-.3.5-.7.7-1.2h.8c-.3.8-.6 1.4-.9 1.9-.4.5-.7.8-1.1 1.1-.4.2-.7.4-1.1.5-.4.1-.7.1-.9.1-.6 0-1.1-.2-1.4-.5-.4-.4-.6-.9-.6-1.7 0-.3.1-.8.2-1.2l2-9.5 2.8-.7z" style="" fill="#FFFFFF"></path><path class="st1" d="M85.5 30.9l-2.2 10.3c-.1.2-.1.4-.1.6 0 .3.1.5.2.6.1.1.3.2.6.2.4 0 .7-.2 1-.5.3-.3.5-.7.7-1.2h.8c-.3.8-.6 1.4-.9 1.9-.4.5-.7.8-1.1 1.1-.4.2-.7.4-1.1.5s-.7.1-.9.1c-.6 0-1.1-.2-1.4-.5-.4-.4-.6-.9-.6-1.7 0-.3.1-.8.2-1.2l2-9.5 2.8-.7z" style="" fill="#FFFFFF"></path><path class="st1" d="M88.3 41.2c0 .6.1 1.1.3 1.3.2.2.6.3 1 .3s.7-.1 1-.2c.3-.1.6-.2.9-.4.3-.2.5-.4.8-.6.2-.2.5-.5.7-.8h.6c-.3.4-.6.9-.9 1.3-.3.4-.7.8-1.2 1.1-.4.3-.9.6-1.4.8-.5.2-1.1.3-1.7.3-.9 0-1.6-.2-2.2-.7-.5-.5-.8-1.2-.8-2.3 0-.4 0-.8.1-1.3s.2-1 .4-1.4l.6-1.5c.3-.5.6-.9 1-1.3s.8-.7 1.3-.9c.5-.2 1.1-.3 1.7-.3.4 0 .8.1 1 .2.3.1.5.2.6.4.2.2.3.4.3.6.1.2.1.4.1.7 0 .5-.1 1-.4 1.5-.2.5-.6.9-1 1.2-.4.3-.9.6-1.4.8-.5.2-1.1.3-1.6.4v.4c.2.1.2.3.2.4zm2.9-4.7c0-.2 0-.4-.1-.6-.1-.1-.2-.2-.4-.2s-.5.1-.7.3c-.2.2-.4.5-.6.9-.2.4-.4.8-.5 1.2-.2.5-.3.9-.4 1.4.4 0 .7-.1 1.1-.3.3-.2.6-.4.9-.7.3-.3.5-.6.6-1 0-.3.1-.7.1-1z" style="" fill="#FFFFFF"></path><path class="st1" d="M97 34.7l-.3 1.2c.4-.4.8-.7 1.2-.9.4-.3.8-.4 1.2-.4.4 0 .8.1 1 .4.2.3.3.6.3 1 0 .2 0 .3-.1.5s-.1.3-.3.4c-.1.1-.3.2-.4.3-.2.1-.4.1-.6.1-.3 0-.4-.1-.5-.2-.1-.1-.2-.3-.2-.4 0-.1-.1-.3-.1-.4 0-.1-.1-.2-.3-.2-.2 0-.5.1-.7.2-.2.1-.5.3-.7.6L95 44.3h-2.7l2-9.5H97z" style="" fill="#FFFFFF"></path></g><g><path class="st0" d="M43.2 53.2v2.2h-1.3v-5.7H44c.4 0 .8.1 1.1.2.3.2.5.4.7.6.2.3.2.5.2.9 0 .3-.1.5-.2.8-.1.3-.3.5-.6.7-.3.2-.7.3-1.2.3h-.8zm1.3-1.2c.1-.1.2-.3.2-.5s-.1-.4-.2-.5c-.1-.1-.3-.2-.5-.2h-.8v1.4h.8c.2-.1.4-.1.5-.2z" style="" fill="#424242"></path><path class="st0" d="M49.6 55.4l-1.2-2.2h-.2v2.2h-1.3v-5.7H49c.4 0 .8.1 1.1.2.3.2.5.4.7.6.2.3.2.5.2.9 0 .3-.1.6-.3 1-.2.3-.5.5-.9.7l1.3 2.3h-1.5zm-1.4-3.3h.8c.2 0 .4-.1.5-.2.1-.1.2-.3.2-.5s-.1-.4-.2-.5c-.1-.1-.3-.2-.5-.2h-.8v1.4z" style="" fill="#424242"></path><path class="st0" d="M56 50c.4.2.8.6 1 1 .2.4.4.9.4 1.5s-.1 1.1-.4 1.5c-.3.4-.6.8-1 1-.4.2-.9.4-1.4.4s-1-.1-1.4-.4c-.4-.2-.8-.6-1-1-.3-.4-.4-.9-.4-1.5s.1-1.1.4-1.5c.3-.4.6-.8 1-1 .4-.2.9-.4 1.4-.4s1 .2 1.4.4zm-2.4 1.4c-.3.3-.4.7-.4 1.2s.1.9.4 1.2c.3.3.6.4 1.1.4.4 0 .8-.1 1.1-.4.3-.3.4-.7.4-1.2s-.1-.9-.4-1.2c-.3-.3-.6-.4-1.1-.4-.5-.1-.9.1-1.1.4z" style="" fill="#424242"></path><path class="st0" d="M62.9 54c-.3.4-.6.8-1.1 1-.5.2-1 .4-1.5.4h-1.9v-5.7h1.9c.6 0 1.1.1 1.6.4.5.2.8.6 1.1 1s.4.9.4 1.5c-.1.5-.3 1-.5 1.4zm-1.5-.1c.3-.3.4-.8.4-1.3s-.1-1-.4-1.3c-.3-.3-.7-.5-1.2-.5h-.6v3.6h.6c.6 0 1-.2 1.2-.5z" style="" fill="#424242"></path><path class="st0" d="M65.4 49.7v3.4c0 .3.1.6.2.8.2.2.4.3.7.3.3 0 .6-.1.7-.3.2-.2.3-.4.3-.8v-3.4h1.3v3.4c0 .5-.1.9-.3 1.3-.2.4-.5.6-.9.8-.4.2-.7.3-1.1.3-.4 0-.8-.1-1.1-.3-.3-.2-.6-.4-.8-.8-.2-.4-.3-.8-.3-1.3v-3.4h1.3z" style="" fill="#424242"></path><path class="st0" d="M74 50.2c.5.3.8.8 1 1.4h-1.6c-.1-.2-.2-.4-.4-.5-.2-.1-.4-.1-.6-.1-.4 0-.8.1-1.1.4-.3.3-.4.7-.4 1.2s.1.9.4 1.2c.3.3.6.4 1.1.4.2 0 .4 0 .6-.1.2-.1.3-.3.4-.5H75c-.2.6-.5 1.1-1 1.4-.5.3-1 .5-1.6.5-.5 0-1-.1-1.4-.4-.4-.2-.8-.6-1-1-.3-.4-.4-.9-.4-1.5s.1-1.1.4-1.5c.3-.4.6-.8 1-1 .4-.2.9-.4 1.4-.4.6-.1 1.1.1 1.6.5z" style="" fill="#424242"></path><path class="st0" d="M79.8 49.7v1.1h-1.5v4.6H77v-4.6h-1.5v-1.1h4.3z" style="" fill="#424242"></path></g></g></svg>