<svg xmlns="http://www.w3.org/2000/svg" id="Layer_1" x="0" y="0" viewBox="0 0 183.6 70" xml:space="preserve" width="183.6" height="70"><title>brand 03</title><g class="nc-icon-wrapper"><path class="st0" d="M36.8 0H.4c7.2 3.4 12.1 10.7 12.1 19.2 0 1-.6 2.1-.6 2.7 0 2.4 5.3 7.8 4.6 9.7-.6 1.6-3.6.7-4.2 2.5-.3.9.8 1.9.5 2.5-.3.6-1.6.7-1.6.7s1.8.9-1.1 3.8c0 0 3.4 5.9-4.8 5.9-5 0-5.4 7.2-5.4 9.3h9.7l-2.5 12c-.3 1.3 1.2 2.2 2.2 1.4L28 56.1h8.8c4.8 0 8.7-3.9 8.7-8.7V8.7c0-4.8-3.9-8.7-8.7-8.7zM21.5 41.1c-1.6 0-2.9-1.3-2.9-2.9 0-1.6 1.3-2.9 2.9-2.9 1.6 0 2.9 1.3 2.9 2.9 0 1.6-1.3 2.9-2.9 2.9zm8.9 0c-1.6 0-2.9-1.3-2.9-2.9 0-1.6 1.3-2.9 2.9-2.9 1.6 0 2.9 1.3 2.9 2.9-.1 1.6-1.4 2.9-2.9 2.9zm8.8 0c-1.6 0-2.9-1.3-2.9-2.9 0-1.6 1.3-2.9 2.9-2.9 1.6 0 2.9 1.3 2.9 2.9 0 1.6-1.3 2.9-2.9 2.9z" style="" fill="#FFB819"></path><path class="st1" d="M8.7 60.7h13l6.3-4.6H9.7z" opacity="0.3" fill="#231F20"></path><path class="st2" d="M53.1 46.9V32.5h-2.6v-4h2.6v-1.9c0-2.1.6-3.7 1.9-4.8 1.3-1.1 3-1.7 5.4-1.7.4 0 .9 0 1.3.1s.9.1 1.5.3l-.4 4.2c-.3-.1-.6-.1-.8-.1h-.9c-.7 0-1.3.2-1.7.6-.4.4-.6.9-.6 1.6v1.9h3.6v4h-3.6V47h-5.7z" style="" fill="#231F20"></path><path class="st2" d="M74.8 46.8c-.2-.4-.4-.8-.5-1.3-.2-.5-.3-1-.3-1.5-.5 1-1.1 1.7-1.8 2.3-.7.6-1.7.9-2.8.9-1.9 0-3.4-.5-4.5-1.5s-1.6-2.3-1.6-4c0-1.8.7-3.2 2-4.2 1.4-1 3.4-1.5 6.2-1.5h2.3v-1.3c0-.8-.2-1.4-.6-1.8-.4-.4-.9-.6-1.7-.6-.7 0-1.2.2-1.5.5-.3.3-.5.8-.5 1.4H64v-.1c-.1-1.7.6-3.1 2.1-4.2s3.4-1.7 5.8-1.7c2.3 0 4.1.6 5.5 1.7 1.4 1.1 2.1 2.7 2.1 4.8v6.9c0 1 .1 1.9.2 2.7.2.8.4 1.7.7 2.5h-5.6zm-4-3.7c.7 0 1.3-.2 1.8-.5s.9-.7 1.1-1.2V39h-2.3c-.9 0-1.6.2-2 .7-.4.4-.6 1-.6 1.7 0 .5.2.9.5 1.3.5.3.9.4 1.5.4z" style="" fill="#231F20"></path><path class="st2" d="M90.4 42.8c.8 0 1.4-.2 1.7-.6.4-.4.6-1 .6-1.8h5.2v.1c0 2-.6 3.6-2.1 4.9-1.4 1.3-3.3 1.9-5.5 1.9-2.8 0-4.9-.9-6.4-2.6-1.5-1.7-2.3-4-2.3-6.7v-.4c0-2.7.7-5 2.2-6.7 1.5-1.7 3.6-2.6 6.4-2.6 2.3 0 4.2.6 5.6 1.9 1.4 1.3 2.1 3.1 2 5.3v.1h-5.2c0-.9-.2-1.6-.6-2.1-.4-.5-1-.8-1.8-.8-1.1 0-1.9.4-2.3 1.3-.4.9-.7 2.1-.7 3.6v.4c0 1.5.2 2.7.7 3.6.6.8 1.4 1.2 2.5 1.2z" style="" fill="#231F20"></path><path class="st2" d="M108.4 47.2c-2.8 0-4.9-.8-6.5-2.5-1.6-1.7-2.4-3.8-2.4-6.4v-.6c0-2.8.7-5.1 2.2-6.8 1.5-1.8 3.6-2.6 6.4-2.6 2.5 0 4.4.7 5.7 2.2 1.4 1.5 2 3.5 2 6.1v3h-10.5v.1c.1 1 .4 1.7 1.1 2.3.6.6 1.5.9 2.7.9 1.1 0 2-.1 2.7-.3.7-.2 1.6-.5 2.5-.9l1.4 3.5c-.8.6-1.8 1.1-3.2 1.5-1.2.3-2.6.5-4.1.5zm-.2-14.6c-.9 0-1.6.3-2 .9-.4.6-.7 1.4-.8 2.4v.1h4.9v-.4c0-.9-.2-1.7-.5-2.1-.2-.6-.8-.9-1.6-.9z" style="" fill="#231F20"></path><path class="st0" d="M126.2 42.8c.8 0 1.4-.2 1.7-.6.4-.4.6-1 .6-1.8h5.2v.1c0 2-.6 3.6-2.1 4.9-1.4 1.3-3.3 1.9-5.5 1.9-2.8 0-4.9-.9-6.4-2.6-1.5-1.7-2.3-4-2.3-6.7v-.4c0-2.7.7-5 2.2-6.7 1.5-1.7 3.6-2.6 6.4-2.6 2.3 0 4.2.6 5.6 1.9 1.4 1.3 2.1 3.1 2 5.3v.1h-5.2c0-.9-.2-1.6-.6-2.1-.4-.5-1-.8-1.8-.8-1.1 0-1.9.4-2.3 1.3-.4.9-.7 2.1-.7 3.6v.4c0 1.5.2 2.7.7 3.6.6.8 1.4 1.2 2.5 1.2z" style="" fill="#FFB819"></path><path class="st0" d="M141.6 30.9c.6-.8 1.2-1.5 2-1.9.8-.5 1.7-.7 2.6-.7 1.9 0 3.4.7 4.5 2s1.6 3.4 1.6 6.1v10.5h-5.7V36.3c0-1.4-.2-2.4-.5-2.9-.4-.5-.9-.8-1.6-.8-.6 0-1.2.1-1.7.3-.5.2-.9.4-1.2.8v13.2h-5.7V20.5h5.7v10.4z" style="" fill="#FFB819"></path><path class="st0" d="M166.1 46.8c-.2-.4-.4-.8-.5-1.3-.2-.5-.3-1-.3-1.5-.5 1-1.1 1.7-1.8 2.3-.7.6-1.7.9-2.8.9-1.9 0-3.4-.5-4.5-1.5s-1.6-2.3-1.6-4c0-1.8.7-3.2 2-4.2 1.4-1 3.4-1.5 6.2-1.5h2.3v-1.3c0-.8-.2-1.4-.6-1.8-.4-.4-.9-.6-1.7-.6-.7 0-1.2.2-1.5.5-.3.3-.5.8-.5 1.4h-5.5v-.1c-.1-1.7.6-3.1 2.1-4.2s3.4-1.7 5.8-1.7c2.3 0 4.1.6 5.5 1.7 1.4 1.1 2.1 2.7 2.1 4.8v6.9c0 1 .1 1.9.2 2.7.2.8.4 1.7.7 2.5h-5.6zm-4.1-3.7c.7 0 1.3-.2 1.8-.5s.9-.7 1.1-1.2V39h-2.3c-.9 0-1.6.2-2 .7-.4.4-.6 1-.6 1.7 0 .5.2.9.5 1.3.5.3 1 .4 1.5.4z" style="" fill="#FFB819"></path><path class="st0" d="M180.4 24v4.5h2.9v4h-2.9v8.4c0 .7.1 1.1.4 1.4.3.3.6.4 1.1.4h.7c.2 0 .4-.1.7-.1l.4 4.2c-.6.1-1.1.3-1.6.3-.5.1-1 .1-1.6.1-1.9 0-3.3-.5-4.3-1.5s-1.5-2.6-1.5-4.8v-8.4h-2.6v-4h2.6V24h5.7z" style="" fill="#FFB819"></path><g><path class="st2" d="M55.8 52.4l1.5-3.1h1.2l-2.2 4.2v2.2h-1.1v-2.3L53 49.3h1.2l1.6 3.1z" style="" fill="#231F20"></path><path class="st2" d="M64.4 53.1c0 .8-.2 1.4-.7 1.9-.5.5-1.1.8-1.9.8-.8 0-1.4-.3-1.9-.8s-.7-1.2-.7-1.9v-1.2c0-.8.2-1.4.7-1.9.5-.5 1.1-.8 1.9-.8.8 0 1.4.3 1.9.8s.7 1.2.7 1.9v1.2zm-1.1-1.2c0-.5-.1-1-.4-1.3-.3-.3-.7-.5-1.2-.5s-.8.2-1.1.5c-.3.3-.4.8-.4 1.3v1.2c0 .5.1 1 .4 1.3.3.3.6.5 1.1.5.5 0 .9-.2 1.2-.5.3-.3.4-.8.4-1.3v-1.2z" style="" fill="#231F20"></path><path class="st2" d="M70.4 49.3v4.2c0 .7-.2 1.3-.7 1.7-.5.4-1.1.6-1.8.6s-1.3-.2-1.8-.6c-.5-.4-.7-1-.7-1.7v-4.2h1.1v4.2c0 .5.1.8.4 1.1.3.2.6.4 1 .4s.8-.1 1-.4c.3-.2.4-.6.4-1.1v-4.2h1.1z" style="" fill="#231F20"></path><path class="st2" d="M72.7 53v2.7h-1.1v-6.4h2.2c.7 0 1.3.2 1.7.5.4.3.6.8.6 1.4 0 .3-.1.6-.3.9-.2.2-.4.4-.7.6.4.1.6.3.8.6.2.3.2.6.2 1v.5c0 .2 0 .4.1.5 0 .2.1.3.2.4v.1h-1.1c-.1-.1-.2-.2-.2-.5v-1.1c0-.3-.1-.6-.3-.8-.3-.3-.5-.4-.8-.4h-1.3zm0-.8h1.1c.4 0 .7-.1.9-.2.2-.2.3-.4.3-.8 0-.3-.1-.6-.3-.8-.2-.2-.5-.3-.9-.3h-1.1v2.1z" style="" fill="#231F20"></path><path class="st2" d="M82.9 54.1c0-.3-.1-.5-.3-.7-.2-.2-.5-.3-1-.5-.7-.2-1.2-.4-1.6-.7-.4-.3-.6-.7-.6-1.2s.2-.9.6-1.3c.4-.3.9-.5 1.6-.5.7 0 1.2.2 1.7.6.4.4.6.8.6 1.4h-1c0-.3-.1-.6-.3-.8-.2-.2-.5-.3-.9-.3s-.6.1-.8.3c-.2.2-.3.4-.3.7 0 .2.1.4.3.6.2.2.6.3 1.1.5.7.2 1.2.4 1.5.8.4.3.5.7.5 1.2s-.2 1-.6 1.3c-.4.3-1 .5-1.6.5-.6 0-1.2-.2-1.7-.5s-.7-.8-.7-1.5h1c0 .4.1.7.4.9.3.2.6.3 1 .3s.7-.1.9-.2c.1-.5.2-.7.2-.9z" style="" fill="#231F20"></path><path class="st2" d="M86.2 54.8h3v.9h-4.1v-6.4h1.1v5.5z" style="" fill="#231F20"></path><path class="st2" d="M95.1 53.1c0 .8-.2 1.4-.7 1.9-.5.5-1.1.8-1.9.8-.8 0-1.4-.3-1.9-.8s-.7-1.2-.7-1.9v-1.2c0-.8.2-1.4.7-1.9.5-.5 1.1-.8 1.9-.8.8 0 1.4.3 1.9.8s.7 1.2.7 1.9v1.2zM94 51.9c0-.5-.1-1-.4-1.3-.3-.3-.7-.5-1.2-.5s-.8.2-1.1.5c-.3.3-.4.8-.4 1.3v1.2c0 .5.1 1 .4 1.3.3.3.6.5 1.1.5.5 0 .9-.2 1.2-.5.3-.3.4-.8.4-1.3v-1.2z" style="" fill="#231F20"></path><path class="st2" d="M101 54.8c-.2.2-.5.5-.8.7-.4.2-.9.3-1.5.3-.8 0-1.4-.2-1.9-.7-.5-.5-.7-1.1-.7-1.9v-1.3c0-.8.2-1.4.7-1.9.5-.5 1.1-.7 1.8-.7s1.3.2 1.7.6c.4.4.6.9.6 1.5h-1c0-.4-.1-.6-.3-.9-.2-.2-.5-.3-1-.3-.4 0-.8.2-1.1.5-.3.3-.4.8-.4 1.3v1.3c0 .5.1.9.4 1.3.3.3.7.5 1.1.5.3 0 .6 0 .8-.1.2-.1.3-.2.5-.3v-1.3h-1.3v-.8h2.4v2.2z" style="" fill="#231F20"></path><path class="st2" d="M105.6 54.2h-2.3l-.5 1.5h-1.1l2.2-6.4h1l2.2 6.4H106l-.4-1.5zm-2-.9h1.7l-.8-2.5-.9 2.5z" style="" fill="#231F20"></path><path class="st2" d="M113 55.7h-1.1l-2.8-4.6v4.6H108v-6.4h1.1l2.8 4.6v-4.6h1.1v6.4z" style="" fill="#231F20"></path><path class="st2" d="M121.5 55.7h-1.1V53h-2.9v2.7h-1.1v-6.4h1.1v2.8h2.9v-2.8h1.1v6.4z" style="" fill="#231F20"></path><path class="st2" d="M126.5 52.8H124v2h3v.9h-4v-6.4h4v.9h-2.9V52h2.5v.8z" style="" fill="#231F20"></path><path class="st2" d="M128.9 53v2.7h-1.1v-6.4h2.2c.7 0 1.3.2 1.7.5.4.3.6.8.6 1.4 0 .3-.1.6-.3.9-.2.2-.4.4-.7.6.4.1.6.3.8.6.2.3.2.6.2 1v.5c0 .2 0 .4.1.5 0 .2.1.3.2.4v.1h-1.1c-.1-.1-.2-.2-.2-.5v-1.1c0-.3-.1-.6-.3-.8-.2-.2-.4-.3-.8-.3h-1.3zm0-.8h1.1c.4 0 .7-.1.9-.2.2-.2.3-.4.3-.8 0-.3-.1-.6-.3-.8-.2-.2-.5-.3-.9-.3h-1.1v2.1z" style="" fill="#231F20"></path><path class="st2" d="M137.1 52.8h-2.5v2h2.9v.9h-4v-6.4h4v.9h-2.9V52h2.5v.8z" style="" fill="#231F20"></path></g></g></svg>