<svg xmlns="http://www.w3.org/2000/svg" xmlns:xlink="http://www.w3.org/1999/xlink" id="Layer_5" x="0px" y="0px" viewBox="0 0 496 432" style="enable-background:new 0 0 496 432;" xml:space="preserve">
<style type="text/css">
	.st0{fill:#FF9F0D;}
	.st1{fill:#FFFFFF;}
</style>
<g>
	<g>
		<path class="st0" d="M209.5,246.3C192.9,221.3,184,192,184,162v-2c0-51.8,25.9-97.5,65.5-124.9c-10.9-2-22-3.1-33.5-3.1    C114.4,32,32,114.4,32,216s82.4,184,184,184c29.8,0,57.9-7.1,82.9-19.7L209.5,246.3z"></path>
	</g>
	<g>
		<g>
			<path class="st0" d="M336,288c-70.6,0-128-57.4-128-128S265.4,32,336,32s128,57.4,128,128S406.6,288,336,288z"></path>
		</g>
	</g>
	<g>
		<path d="M336,0c-19.4,0-38,3.7-55.2,10C259.8,3.4,238,0,216,0C96.9,0,0,96.9,0,216s96.9,216,216,216c32.3,0,64.4-7.4,93.5-21.4    l7.4,11.2c4.3,6.4,11.4,10.2,19.1,10.2s14.8-3.8,19.1-10.2l114-171.1c17.6-26.4,26.9-57.1,26.9-88.8v-2C496,71.8,424.2,0,336,0z     M257.8,20.6c-30.2,17-54.3,43.5-68.3,75.4h-34.2c17-49.2,41.9-80,60.8-80C230.1,16,244.1,17.6,257.8,20.6z M182.8,208h-46.6    c0.7-35.5,6.1-68.1,14.1-96h33.2c-4.8,15.2-7.4,31.3-7.4,48v2C176,177.7,178.3,193.2,182.8,208L182.8,208z M216,416    c-18.8,0-43.8-30.8-60.8-80h104.5l4.9,7.3C252.2,388.2,233.8,416,216,416L216,416z M150.2,320c-8-27.9-13.4-60.5-14.1-96h52.5    c3.9,9.3,8.6,18.2,14.3,26.7l46.2,69.3H150.2z M16.2,224h103.9c0.7,33.7,5.6,66.6,13.5,96H45.2C28,291.8,17.6,259,16.2,224z     M16.2,208c1.4-35,11.8-67.8,29-96h88.4c-7.9,29.4-12.8,62.3-13.5,96H16.2z M178.9,19.5c-16,17-30.2,43.9-40.6,76.5H56.1    C85.5,56.9,129,28.9,178.9,19.5z M56.1,336h82.2c10.5,32.6,24.6,59.5,40.6,76.5C129,403.1,85.5,375.1,56.1,336L56.1,336z     M250,413.1c10-12,18.8-29.7,26.2-52.5l24.4,36.6C284.3,404.8,267.4,410.1,250,413.1z M480,162c0,28.5-8.4,56.1-24.2,79.9    l-114,171.1c-2.6,3.9-9,3.9-11.6,0l-114-171.1C200.4,218.1,192,190.5,192,162v-2c0-79.4,64.6-144,144-144s144,64.6,144,144V162z"></path>
		<path class="st1" d="M374.3,74.9c-7.1-7.1-16.5-10.9-26.9-10.9c-15.1,0-28.5,9.1-34.1,23.1l-4.6,11.5h0    c-2.4,5.9-5.8,11.2-10.3,15.7l-2.8,2.8c-7,7-16.3,10.9-26.8,10.9c-15.8,0-28.7,13-28.7,28.9v0.9c0,8.9,4.2,17.4,11.4,22.7    l11.8,8.8c5.6,4.2,8.8,10.7,8.8,18.1c0,6.6,2.6,12.7,7.2,17.3c4.6,4.6,10.8,7.2,17.7,7.2h0c6.6,0,13-2.7,17.7-7.3l18.8-18.8    c2.9-2.9,7.2-3.9,11.2-2.6c4.5,1.5,7.4,5.6,7.4,10.3V232c0,13.2,10.8,24,24,24s24-10.8,24-24v-12.3c0-4.2,2.3-7.9,6-9.7l8.2-4.1    c11-5.5,17.8-16.5,17.8-28.8v-23.2c0-13.6-5.3-26.4-14.9-36.1L374.3,74.9z M416,177.1c0,6.2-3.4,11.7-8.9,14.4l-8.2,4.1    c-9.2,4.6-14.9,13.8-14.9,24.1V232c0,4.4-3.6,8-8,8s-8-3.6-8-8v-18.4c0-11.6-7.4-21.8-18.4-25.5c-2.8-0.9-5.7-1.4-8.6-1.4    c-7,0-13.8,2.8-19,7.9l-18.8,18.8c-1.7,1.7-4,2.6-6.8,2.6c0,0,0,0,0,0c-2.3,0-4.4-0.9-6-2.5c-1.6-1.6-2.5-3.7-2.5-6.4    c0-12-5.7-23.4-15.2-30.5l-11.8-8.9c-3.2-2.4-5-6-5-9.9v-0.9c0-7.1,5.7-12.9,13.3-12.9c14.2,0,27.5-5.5,37.5-15.5l2.8-2.8    c6-6,10.7-13.1,13.9-21.1l4.6-11.5c3.2-7.9,10.7-13,19.6-13c5.8,0,11.2,2.2,15.2,6.2l42.8,42.8c6.6,6.6,10.2,15.4,10.2,24.8    L416,177.1z"></path>
		<path d="M296,320h16v16h-16V320z"></path>
		<path d="M328,320h16v16h-16V320z"></path>
		<path d="M360,320h16v16h-16V320z"></path>
		<path d="M33.7,190.9l15.9,2.2c0.7-5.1,1.6-10.1,2.8-15l-15.6-3.6C35.5,179.8,34.5,185.4,33.7,190.9z"></path>
		<path d="M47.2,142.7c-2.2,5.1-4.2,10.4-5.9,15.6l15.2,5c1.6-4.8,3.4-9.6,5.4-14.3L47.2,142.7z"></path>
	</g>
</g>
</svg>