<svg xmlns="http://www.w3.org/2000/svg" xmlns:xlink="http://www.w3.org/1999/xlink" id="Capa_1" x="0px" y="0px" viewBox="0 0 496 496" style="enable-background:new 0 0 496 496;" xml:space="preserve">
<style type="text/css">
	.st0{fill:#FF9F0D;}
	.st1{fill:#FFFFFF;}
	.st2{fill:#595959;}
</style>
<g>
	<rect x="96" y="120" class="st0" width="80" height="208"></rect>
	<circle class="st0" cx="280" cy="128" r="72"></circle>
</g>
<g>
	<path d="M336,416v16h144v24c0,13.2-10.8,24-24,24H40c-13.2,0-24-10.8-24-24v-24h144v-16H0v40c0,22.1,17.9,40,40,40h416   c22.1,0,40-17.9,40-40v-40H336z"></path>
	<path d="M176,440c0,13.2,10.8,24,24,24h96c13.2,0,24-10.8,24-24v-24H176V440z M192,432h112v8c0,4.4-3.6,8-8,8h-96c-4.4,0-8-3.6-8-8   V432z"></path>
	<path d="M32,144c0-13.2,10.8-24,24-24h16v-16H56c-22.1,0-40,17.9-40,40v256h16V144z"></path>
	<path d="M464,144v256h16V144c0-22.1-17.9-40-40-40h-16v16h16C453.2,120,464,130.8,464,144z"></path>
	<path d="M48,152v248h16V152h8v-16h-8C55.2,136,48,143.2,48,152z"></path>
	<path d="M432,400h16V152c0-8.8-7.2-16-16-16h-8v16h8V400z"></path>
	<polygon points="120,16 392,16 392,400 408,400 408,0 104,0 104,56 120,56  "></polygon>
	<path d="M136,400c26.5,0,48-21.5,48-48V117.7l-48-76.8l-48,76.8V352C88,378.5,109.5,400,136,400z M136,384c-17.6,0-32-14.4-32-32   v-16h64v16C168,369.6,153.6,384,136,384z M128,128v160h-24V128H128z M168,128v160h-24V128H168z M168,304v16h-64v-16H168z    M161.6,112h-51.1L136,71.1L161.6,112z"></path>
	<path d="M360,128c0-44.1-35.9-80-80-80s-80,35.9-80,80s35.9,80,80,80S360,172.1,360,128z M280,192c-35.3,0-64-28.7-64-64   s28.7-64,64-64s64,28.7,64,64S315.3,192,280,192z"></path>
	<path class="st1" d="M272,104h16c4.4,0,8,3.6,8,8h16c0-13.2-10.8-24-24-24v-8h-16v8c-13.2,0-24,10.8-24,24s10.8,24,24,24h16   c4.4,0,8,3.6,8,8s-3.6,8-8,8h-16c-4.4,0-8-3.6-8-8h-16c0,13.2,10.8,24,24,24v8h16v-8c13.2,0,24-10.8,24-24s-10.8-24-24-24h-16   c-4.4,0-8-3.6-8-8S267.6,104,272,104z"></path>
</g>
<g>
	<rect x="200" y="224" class="st2" width="16" height="16"></rect>
	<rect x="232" y="224" class="st2" width="144" height="16"></rect>
	<rect x="360" y="320" class="st2" width="16" height="16"></rect>
	<rect x="200" y="320" class="st2" width="144" height="16"></rect>
	<rect x="200" y="256" class="st2" width="176" height="16"></rect>
	<rect x="200" y="352" class="st2" width="176" height="16"></rect>
	<rect x="200" y="288" class="st2" width="80" height="16"></rect>
	<rect x="296" y="288" class="st2" width="80" height="16"></rect>
</g>
</svg>