<svg version="1.1" xmlns="http://www.w3.org/2000/svg" x="0" y="0" viewBox="0 0 172 46" xml:space="preserve" enable-background="new 0 0 172 46"><g class="nc-icon-wrapper"><g id="Gainlove_1_" class="st0" enable-background="new"><path class="st1" d="M64.5 16.9v1l.7.1c.7.1 1.2.3 1.4.7.2.4.4 1.2.4 2.3 0 1.4-.2 2.4-.5 3-.4.6-1.1.9-2.1.9-1.9 0-3.3-.9-4.3-2.6-1-1.8-1.5-4.1-1.5-6.9 0-2.4.4-4.3 1.2-5.5.7-1.3 1.9-1.9 3.4-1.9 2.3 0 4.1 1.5 5.4 4.5h2c-.6-1.5-1-3.3-1.2-5.2-.5.1-1 .2-1.5.2-.6 0-1.4-.1-2.2-.4-.9-.2-1.7-.4-2.5-.4-2.7 0-4.9.9-6.6 2.7-1.7 1.8-2.5 4.1-2.5 7 0 3 .8 5.4 2.5 7.2 1.7 1.8 4 2.7 6.8 2.7.9 0 2-.2 3.2-.5s2.3-.5 3.3-.5c.7 0 1.3 0 1.9.1v-1.1c-.7-.2-1.1-1.2-1.1-3v-.2c0-1 .1-1.7.2-2.2.1-.5.5-.8 1-.8l.6-.1v-1c-2.6 0-5.3 0-8-.1zm22.6 5.6V15c0-1.7-.4-2.9-1.2-3.5-.8-.6-2-1-3.6-1-2.1 0-3.8.4-5.2 1.2-1.4.8-2.1 1.7-2.1 2.9 0 .5.1.9.4 1.2s.7.4 1.3.4c.2 0 .4 0 .6-.1.2-.1.3-.1.5-.2.1-.1.2-.2.4-.3.1-.2.2-.3.2-.4s.1-.3.2-.5.1-.4.1-.5c0-.1.1-.3.1-.5s.1-.4.1-.5c.1-.5.3-.9.7-1.2.4-.3.9-.5 1.5-.5.8 0 1.3.2 1.6.7.3.5.4 1.4.4 2.7v1.6c-3.4.7-5.7 1.5-7 2.4-1.3.9-1.9 2-1.9 3.4 0 1.3.4 2.3 1.3 2.9.8.6 1.8 1 3 1 1.3 0 2.4-.4 3.3-1.1.7-.6 1.1-1.1 1.4-1.6h.2l-.1 2c.1.4.4.6.7.8 1.8-.4 3.4-.6 5.1-.7v-1.1c-1.3-.1-2-.8-2-2zm-4-.6c-.3.6-.6 1.1-1.1 1.7-.5.5-1.1.8-1.8.8-.6 0-1-.2-1.4-.7-.4-.4-.5-1-.5-1.8 0-.7.2-1.5.7-2.3.6-1 2-1.7 4.1-2.3v4.6zm13.3 1.8v-8.2c0-2.1.1-3.5.2-4.3-.2-.4-.4-.6-.8-.8-1.4.9-3.2 1.5-5.2 1.9v1c.6-.1 1.1 0 1.4.2.3.2.4.6.4 1.2v9c0 .6-.6 1-1.8 1.1v1c2.6-.1 5.2-.1 7.8 0v-1c-1.4-.1-2-.5-2-1.1zM94.3 8.6c.6 0 1.1-.2 1.5-.6.4-.4.6-.9.6-1.5s-.2-1.1-.6-1.5-.9-.6-1.5-.6-1.1.2-1.5.6c-.4.4-.6.9-.6 1.5s.2 1.1.6 1.5c.4.4.9.6 1.5.6zM115 23.7v-8c0-1.9-.4-3.3-1.3-4.1-.8-.8-1.9-1.2-3.1-1.2-1 0-1.9.2-2.7.7-.8.4-1.4.9-1.8 1.4-.4.5-.7.9-.9 1.4h-.2l.5-2.7c-.2-.4-.4-.6-.8-.8-1.4.8-3.1 1.5-5.1 1.9v1c1.2-.2 1.8.2 1.8 1.3v9c0 .6-.6 1-1.9 1.1v1c2.6-.1 5.2-.1 7.8 0v-1c-1.3-.1-1.9-.5-1.9-1.1v-8.5c.2-.6.5-1.3 1.1-1.9.6-.6 1.3-1 2.1-1 1.5 0 2.2 1.2 2.2 3.4v8c0 .6-.6 1-1.9 1.1v1c2.6-.1 5.2-.1 7.8 0v-1c-1 0-1.7-.4-1.7-1z" id="Gainlove" fill-rule="evenodd" clip-rule="evenodd" fill="#FFFFFF"/></g><g id="Gainlove_copy_1_" class="st0" enable-background="new"><path class="st2" d="M123.7 23.7v-14c0-2.1.1-3.5.2-4.3-.2-.4-.4-.6-.8-.8-1.4.9-3.2 1.5-5.2 1.9v1c.6-.1 1.1 0 1.4.2.3.2.4.6.4 1.2v14.8c0 .6-.6 1-1.8 1.1v1c2.6-.1 5.2-.1 7.8 0v-1c-1.4-.1-2-.5-2-1.1zm10.5-13.2c-1.8 0-3.4.6-4.9 1.9-.7.6-1.3 1.5-1.7 2.5-.4 1-.7 2.2-.7 3.4 0 2.4.8 4.3 2.3 5.8 1.5 1.4 3.2 2.1 5 2.1 1.8 0 3.4-.6 4.9-1.9.7-.6 1.3-1.5 1.7-2.5.4-1 .6-2.2.6-3.4 0-2.4-.8-4.3-2.3-5.7-1.4-1.5-3.1-2.2-4.9-2.2zm2.4 13.1c-.4 1-1.1 1.4-1.9 1.4-1 0-1.9-.7-2.5-2.2-.6-1.5-1-3.4-1-5.7 0-1.7.2-3.1.7-4 .4-.9 1.1-1.4 1.9-1.4 1.1 0 1.9.7 2.5 2.2.6 1.5 1 3.4 1 5.7-.1 1.7-.3 3-.7 4zm14.7-11.7l1 .1c.6 0 1.1.2 1.4.6.3.3.3.8.2 1.4l-2.6 8.5-2.8-8.5c-.4-1.2-.2-1.9.6-2l.6-.1v-1.1H142v1.1l.6.1c.6 0 1 .2 1.2.5.2.3.5.7.7 1.5l4.2 12h2.7l3.7-12c.4-1.2 1.2-1.9 2.4-2l.6-.1v-1.1h-6.7v1.1zM166.5 25c-1.4 0-2.5-.6-3.2-1.8-.7-1.2-1-2.7-1-4.5h7.4c.6 0 1.1-.2 1.3-.5.3-.3.4-.9.4-1.6 0-1.7-.6-3.1-1.8-4.3-1.2-1.2-2.7-1.7-4.5-1.7-1.9 0-3.6.7-5.1 2.1-1.4 1.4-2.1 3.3-2.1 5.7 0 2.4.7 4.3 2.2 5.7 1.5 1.4 3.2 2.1 5.4 2.1 2.7 0 4.5-1.2 5.5-3.4h-1c-.7 1.4-1.8 2.2-3.5 2.2zm-3.4-11.8c.5-1 1.2-1.6 2.1-1.6.9 0 1.5.5 1.9 1.5.4 1 .6 2.5.6 4.4h-5.4c.1-1.8.3-3.2.8-4.3z" id="Gainlove_copy_2_" fill-rule="evenodd" clip-rule="evenodd" fill="#FF9D0F"/></g><g id="Global_aid_network_xA0__1_" class="st0" enable-background="new"><path class="st1" d="M59.2 32.7c-.4-.2-.9-.3-1.5-.3s-1.1.1-1.5.3c-.4.2-.8.6-1 1-.2.4-.4.9-.4 1.5v3.1c0 .5.1 1 .4 1.4.2.4.6.7 1 1 .4.2 1 .3 1.5.3.9 0 1.6-.2 2.1-.7.5-.5.8-1.2.8-2.1v-1.5c0-.1 0-.1-.1-.1h-2.7c-.1 0-.1 0-.1.1v.7c0 .1 0 .1.1.1h1.6v.9c0 .5-.2.9-.5 1.1-.3.3-.7.4-1.3.4-.5 0-1-.2-1.3-.5s-.5-.7-.5-1.2v-3.1c0-.5.2-.9.5-1.2.3-.3.8-.5 1.3-.5s1 .2 1.3.5c.3.3.5.7.5 1.2v.1c0 .1 0 .1.1.1h.9c.1 0 .1 0 .1-.1v-.1c0-.5-.1-.9-.4-1.3-.1-.6-.5-.9-.9-1.1zm5.2-.3h-.9c-.1 0-.1 0-.1.1v8.2c0 .1 0 .1.1.1h.9c.1 0 .1 0 .1-.1v-8.2s0-.1-.1-.1zm7 2.7c-.4-.3-.9-.5-1.5-.5s-1.1.2-1.6.5c-.4.3-.7.7-.9 1.2-.1.4-.2.9-.2 1.4 0 .5.1 1 .2 1.5.2.5.5 1 .9 1.3.4.3 1 .5 1.5.5.6 0 1.1-.2 1.5-.5s.7-.7.9-1.3c.1-.4.2-.9.2-1.5s-.1-1-.2-1.4c0-.5-.3-.9-.8-1.2zm-.1 3.8c-.1.3-.3.6-.5.8-.2.2-.5.3-.8.3-.3 0-.6-.1-.9-.3-.2-.2-.4-.4-.5-.8-.1-.3-.1-.7-.1-1.1 0-.5 0-.8.1-1.1.1-.3.3-.6.5-.8.2-.2.5-.3.9-.3.3 0 .6.1.9.3.2.2.4.4.5.8.1.3.1.7.1 1.1-.1.4-.1.8-.2 1.1zm8.1-3.8c-.4-.3-.9-.4-1.5-.4-.3 0-.5.1-.8.2-.2.1-.5.3-.6.5v-2.7c0-.1 0-.1-.1-.1h-.9c-.1 0-.1 0-.1.1v8.2c0 .1 0 .1.1.1h.9c.1 0 .1 0 .1-.1v-.4c.2.2.4.4.6.5.2.1.5.2.8.2.6 0 1.1-.1 1.4-.4.4-.3.7-.7.8-1.2.2-.4.2-.9.2-1.5s-.1-1-.2-1.5c-.1-.8-.3-1.2-.7-1.5zm-.5 4.2c-.2.4-.6.7-1.1.7-.5 0-.8-.2-1.1-.6-.2-.4-.3-.9-.3-1.5 0-.7.1-1.2.3-1.5.2-.4.6-.6 1-.6.5 0 .8.2 1.1.6.3.4.4.9.4 1.6 0 .4-.1.9-.3 1.3zm7.7-4.4c-.4-.2-.8-.3-1.3-.3-.7 0-1.2.2-1.7.5-.4.3-.7.7-.8 1.2 0 0 0 .1.1.1l1 .1c.1 0 .1 0 .1-.1 0-.2.2-.4.4-.5.2-.1.5-.2.8-.2.4 0 .7.1.9.3.2.2.3.5.3.8v.3h-1.3c-.8 0-1.4.2-1.8.5-.4.4-.7.8-.7 1.5 0 .6.2 1.1.6 1.4.4.3.9.5 1.5.5.4 0 .7-.1 1-.2.3-.1.6-.3.8-.5h.1v.4c0 .1 0 .1.1.1h.9c.1 0 .1 0 .1-.1v-4.1c0-.4-.1-.7-.3-1-.1-.3-.4-.5-.8-.7zm0 3.9c0 .3-.2.6-.5.9-.3.2-.7.3-1.1.3-.3 0-.6-.1-.8-.2-.2-.2-.3-.4-.3-.7 0-.3.1-.6.4-.8.3-.2.7-.3 1.1-.3h1.1v.8zm4.9-6.4h-.9c-.1 0-.1 0-.1.1v8.2c0 .1 0 .1.1.1h.9c.1 0 .1 0 .1-.1v-8.2c.1 0 0-.1-.1-.1zm10.1 2.5c-.4-.2-.8-.3-1.3-.3-.7 0-1.2.2-1.7.5-.4.3-.7.7-.8 1.2 0 0 0 .1.1.1l1 .1c.1 0 .1 0 .1-.1 0-.2.2-.4.4-.5.2-.1.5-.2.8-.2.4 0 .7.1.9.3.2.2.3.5.3.8v.3h-1.3c-.8 0-1.4.2-1.8.5-.4.4-.7.8-.7 1.5 0 .6.2 1.1.6 1.4.4.3.9.5 1.5.5.4 0 .7-.1 1-.2.3-.1.6-.3.8-.5h.1v.4c0 .1 0 .1.1.1h.9c.1 0 .1 0 .1-.1v-4.1c0-.4-.1-.7-.3-1-.1-.3-.4-.5-.8-.7zm0 3.9c0 .3-.2.6-.5.9-.3.2-.7.3-1.1.3-.3 0-.6-.1-.8-.2-.2-.2-.3-.4-.3-.7 0-.3.1-.6.4-.8.3-.2.7-.3 1.1-.3h1.1v.8zm5.1-4.1h-.9c-.1 0-.1 0-.1.1v5.9c0 .1 0 .1.1.1h.9c.1 0 .1 0 .1-.1v-5.9l-.1-.1zm-.5-2.5c-.2 0-.4.1-.6.2-.1.1-.2.3-.2.6 0 .2.1.4.2.6.1.1.3.2.6.2.2 0 .4-.1.6-.2.1-.1.2-.3.2-.6 0-.2-.1-.4-.2-.6-.2-.1-.3-.2-.6-.2zm8.4.2h-.9c-.1 0-.1 0-.1.1v2.7c-.2-.2-.4-.4-.6-.5-.2-.1-.5-.2-.8-.2-.6 0-1.1.1-1.5.4-.4.3-.7.7-.8 1.2-.1.4-.2.9-.2 1.5s.1 1.1.2 1.5c.2.5.5.9.8 1.2.4.3.9.4 1.4.4.3 0 .5-.1.8-.2s.4-.3.6-.5v.4c0 .1 0 .1.1.1h.9c.1 0 .1 0 .1-.1v-8.2c.1.3.1.2 0 .2zm-1.3 6.9c-.2.4-.6.6-1.1.6-.5 0-.9-.2-1.1-.7-.2-.4-.3-.9-.3-1.5 0-.7.1-1.2.4-1.6.2-.4.6-.6 1.1-.6.4 0 .8.2 1 .6.2.4.3.9.3 1.5s-.1 1.3-.3 1.7zm10.7-4.7c-.7 0-1.2.2-1.5.7v-.4c0-.1 0-.1-.1-.1h-.9c-.1 0-.1 0-.1.1v5.9c0 .1 0 .1.1.1h.9c.1 0 .1 0 .1-.1V37c0-.4.1-.7.4-1 .2-.2.5-.4.9-.4s.7.1.9.4c.2.2.3.6.3 1v3.7c0 .1 0 .1.1.1h.9c.1 0 .1 0 .1-.1v-4c0-.6-.2-1.2-.6-1.5-.4-.4-.9-.6-1.5-.6zm9.1.6c-.4-.4-1-.6-1.8-.6-.6 0-1.1.2-1.6.5-.4.3-.7.8-.9 1.3-.1.3-.1.7-.1 1.3 0 .7.1 1.2.3 1.7.2.5.5.8.9 1.1.4.3.9.4 1.5.4.5 0 1-.1 1.4-.3.4-.2.7-.5 1-.9v-.2l-.7-.5c-.1-.1-.1 0-.2 0-.3.5-.8.7-1.4.7-.4 0-.7-.1-1-.3-.3-.2-.4-.4-.5-.8 0-.1-.1-.4-.1-.6h3.8c.1 0 .1 0 .1-.1v-1.1c-.1-.6-.3-1.2-.7-1.6zm-.5 2.1h-2.7c0-.3.1-.5.1-.7.1-.3.2-.5.5-.7.2-.2.5-.3.9-.3s.6.1.9.3c.2.2.4.4.5.8-.1.1-.1.3-.2.6.1 0 .1 0 0 0zm6.7-2.6H138v-1.4c0-.1 0-.1-.1-.1h-.9c-.1 0-.1 0-.1.1v1.4h-.7c-.1 0-.1 0-.1.1v.7c0 .1 0 .1.1.1h.7v3.6c0 .6.2 1 .5 1.2.3.2.8.3 1.4.3h.6c.1 0 .1 0 .1-.1V40c0-.1 0-.1-.1-.1h-.3c-.3 0-.6-.1-.7-.2-.2-.1-.2-.4-.2-.7v-3.2h1.3c.1 0 .1 0 .1-.1V35c-.2-.2-.2-.3-.3-.3zm10.4 0h-.9c-.1 0-.1 0-.1.1l-1.2 4.3-1.2-4.3c0-.1-.1-.1-.1-.1h-.8c-.1 0-.1 0-.1.1l-1.2 4.4-1.1-4.4c0-.1-.1-.1-.1-.1h-.9c-.1 0-.1 0-.1.1l1.7 5.9c0 .1.1.1.1.1h.9c.1 0 .1 0 .1-.1l1.1-4 1.2 4.1c0 .1.1.1.1.1h.9c.1 0 .1 0 .1-.1l1.7-5.9c0-.1 0-.1-.1-.2zm6.2.4c-.4-.3-.9-.5-1.5-.5s-1.1.2-1.6.5c-.4.3-.7.7-.9 1.2-.1.4-.2.9-.2 1.4 0 .5.1 1 .2 1.5.2.5.5 1 .9 1.3.4.3 1 .5 1.5.5.6 0 1.1-.2 1.5-.5s.7-.7.9-1.3c.1-.4.2-.9.2-1.5s-.1-1-.2-1.4c-.1-.5-.4-.9-.8-1.2zm-.2 3.8c-.1.3-.3.6-.5.8-.2.2-.5.3-.8.3-.3 0-.6-.1-.9-.3-.2-.2-.4-.4-.5-.8-.1-.3-.1-.7-.1-1.1 0-.5 0-.8.1-1.1.1-.3.3-.6.5-.8.2-.2.5-.3.9-.3.3 0 .6.1.9.3.2.2.4.4.5.8.1.3.1.7.1 1.1 0 .4-.1.8-.2 1.1zm6.7-4.2c-.6 0-1.1.3-1.5.8v-.6c0-.1 0-.1-.1-.1h-.9c-.1 0-.1 0-.1.1v5.9c0 .1 0 .1.1.1h.9c.1 0 .1 0 .1-.1v-3.5c0-.4.1-.7.4-1 .2-.2.6-.4.9-.4h.2c.2 0 .3 0 .5.1.1 0 .1 0 .1-.1l.2-.9c0-.1 0-.1-.1-.1-.2-.2-.4-.2-.7-.2zm8 6l-1.8-4v-.1l1.5-1.8v-.1H169c-.1 0-.1 0-.1.1l-2.2 2.4v-4.6c0-.1 0-.1-.1-.1h-.9c-.1 0-.1 0-.1.1v8.2c0 .1 0 .1.1.1h.9c.1 0 .1 0 .1-.1v-1.9-.1l1.1-1.2h.1l1.4 3.3c0 .1.1.1.1.1h1v-.3z" id="Global_aid_network_xA0_" fill-rule="evenodd" clip-rule="evenodd" fill="#FFFFFF"/></g><g id="Vector_Smart_Object_xA0_Image_1_"><path class="st3" d="M12.6 26.8s-5 2.6-4.4 1.6c1.2-2.2 4.3-5.8 1.4-11.9-.4-.9 2.5.5 4.2 2 0 0 .1-3.2-6.2-6.5-.9-.5-2.4.5-1.3 2.1 1.1 1.8 2.7 5.9 2 8.2-.6 2-2.4 4.7-4.1 7.1-.6.9.4 2.2 1.9 1.8.1 0 4.5-.9 6.5-4.4z" style="" fill="#1B75BB"/><path class="st3" d="M5.4 18.5c1.7 1 2.3 3.1 1.3 4.8-1 1.7-3.1 2.3-4.8 1.3-1.7-1-2.3-3.1-1.3-4.8.9-1.7 3.1-2.3 4.8-1.3z" style="" fill="#1B75BB"/><path class="st4" d="M22.1 35.7s-.2 5.6-.8 4.7c-1.3-2.2-2.9-6.7-9.6-7.1-1-.1 1.7-1.9 3.9-2.6 0 0-2.7-1.7-8.8 2.1-.8.5-.7 2.4 1.2 2.2 2.1-.2 6.4.5 8 2.2 1.4 1.5 2.8 4.4 4.1 7.1.5 1 2.2.7 2.5-.8.2-.1 1.5-4.3-.5-7.8z" style="" fill="#8BC53F"/><path class="st4" d="M11.3 37.8c1.7-1 3.9-.4 4.8 1.3 1 1.7.4 3.9-1.3 4.8-1.7 1-3.9.4-4.8-1.3-1-1.6-.4-3.8 1.3-4.8z" style="" fill="#8BC53F"/><path class="st5" d="M34.6 31.9s4.8 3 3.6 3c-2.6 0-7.2-.8-11 4.7-.5.8-.8-2.4-.3-4.7 0 0-2.8 1.5-2.6 8.7 0 1 1.7 1.8 2.5.1.9-1.9 3.6-5.3 6-5.8 2-.5 5.2-.2 8.2 0 1.1.1 1.7-1.5.6-2.6 0-.1-3-3.4-7-3.4z" style="" fill="#37B34A"/><path class="st5" d="M31 42.3c0-2 1.6-3.5 3.5-3.5 2 0 3.5 1.6 3.5 3.5 0 2-1.6 3.5-3.5 3.5-1.9.1-3.5-1.5-3.5-3.5z" style="" fill="#37B34A"/><g><path class="st6" d="M37.6 19.2s5-2.6 4.4-1.6c-1.2 2.2-4.3 5.8-1.4 11.9.4.9-2.5-.5-4.2-2 0 0-.1 3.2 6.2 6.5.9.5 2.4-.5 1.3-2.1-1.2-1.7-2.7-5.8-2.1-8.1.6-2 2.4-4.7 4.1-7.1.6-.9-.4-2.2-1.9-1.8-.1-.1-4.4.8-6.4 4.3z" style="" fill="#F05A28"/><path class="st6" d="M44.8 27.5c-1.7-1-2.3-3.1-1.3-4.8 1-1.7 3.1-2.3 4.8-1.3 1.7 1 2.3 3.1 1.3 4.8-.9 1.7-3.1 2.3-4.8 1.3z" style="" fill="#F05A28"/></g><g><path class="st7" d="M28.1 10.3s.2-5.6.8-4.7c1.3 2.2 2.9 6.7 9.6 7.1 1 .1-1.7 1.9-3.9 2.6 0 0 2.7 1.7 8.8-2.1.8-.5.7-2.4-1.2-2.2-2.1.2-6.4-.5-8-2.2-1.4-1.5-2.8-4.4-4.1-7.1-.5-1-2.2-.7-2.5.8-.2.1-1.6 4.3.5 7.8z" style="" fill="#F6921E"/><path class="st7" d="M38.9 8.2c-1.7 1-3.9.4-4.8-1.3-1-1.7-.4-3.9 1.3-4.8 1.7-1 3.9-.4 4.8 1.3.9 1.6.3 3.8-1.3 4.8z" style="" fill="#F6921E"/></g><g><path class="st8" d="M15.6 14.1s-4.8-3-3.6-3c2.6 0 7.2.8 11-4.7.5-.8.8 2.4.3 4.7 0 0 2.8-1.5 2.6-8.7 0-1-1.7-1.8-2.5-.1-.9 1.9-3.6 5.3-6 5.8-2 .5-5.2.2-8.2 0-1.2 0-1.8 1.6-.7 2.7 0 0 3.1 3.3 7.1 3.3z" style="" fill="#25A9E0"/><path class="st8" d="M19.1 3.7c0 2-1.6 3.5-3.5 3.5-2 0-3.5-1.6-3.5-3.5 0-2 1.6-3.5 3.5-3.5 2-.1 3.5 1.5 3.5 3.5z" style="" fill="#25A9E0"/></g></g></g></svg>