<svg xmlns="http://www.w3.org/2000/svg" xmlns:xlink="http://www.w3.org/1999/xlink" id="Layer_1" x="0px" y="0px" viewBox="0 0 496 496" style="enable-background:new 0 0 496 496;" xml:space="preserve">
<style type="text/css">
	.st0{fill:#FF9F0D;}
</style>
<g>
	<path class="st0" d="M224,48v104h56v40h120V48H224z"></path>
	<path class="st0" d="M171.3,284.7c3,2.9,4.7,6.9,4.7,11.3c0,8.8-7.2,16-16,16h-1.4c-14.5,0-28.4,5.8-38.6,16   c-19.4-14.6-32-37.8-32-64c0-2.7,0.2-5.4,0.4-8h14.5c10.7,0,20.7,5.4,26.6,14.2l6.5,9.8h24C164.4,280,168.4,281.8,171.3,284.7z"></path>
	<path class="st0" d="M248,264c0,14.2-3.8,27.7-10.3,39.3l-27.3-9.1c-11-3.7-18.4-14-18.4-25.6v-6.2c0-9-4.5-17.4-12-22.4   s-12-13.4-12-22.4V184C212.2,184,248,219.8,248,264z"></path>
	<path class="st0" d="M496,32h-72v64h72l-32-32L496,32z"></path>
</g>
<path d="M416,304h16V0H184c-22.1,0-40,17.9-40,40v104H40c-22.1,0-40,17.9-40,40v280c0,17.6,14.4,32,32,32h256v-16h-16  c-8.8,0-16-7.2-16-16s7.2-16,16-16h16v-96h144v-16h-16c-8.8,0-16-7.2-16-16S407.2,304,416,304z M416,288H288V144h-80V16h208V288z   M160,40c0-13.2,10.8-24,24-24h8v128h-32V40z M40,160h8v272H32c-5.9,0-11.3,1.7-16,4.4V184C16,170.8,26.8,160,40,160z M244.4,480H32  c-8.8,0-16-7.2-16-16s7.2-16,16-16h212.4c-2.8,4.7-4.4,10.1-4.4,16S241.7,475.3,244.4,480z M64,432V160h208v272H64z M288,336v-32  h100.4c-2.8,4.7-4.4,10.1-4.4,16s1.7,11.3,4.4,16H288z"></path>
<path d="M168,176c-48.5,0-88,39.5-88,88s39.5,88,88,88s88-39.5,88-88S216.5,176,168,176z M168,336c-39.7,0-72-32.3-72-72  s32.3-72,72-72s72,32.3,72,72S207.7,336,168,336z"></path>
<path d="M80,368h176v16H80V368z"></path>
<path d="M224,400h32v16h-32V400z"></path>
<path d="M80,400h128v16H80V400z"></path>
<path d="M304,208h96v16h-96V208z"></path>
<path d="M304,240h96v16h-96V240z"></path>
</svg>